<?xml version="1.0" encoding="UTF-8" standalone="no"?>
<svg
   xmlns:dc="http://purl.org/dc/elements/1.1/"
   xmlns:cc="http://creativecommons.org/ns#"
   xmlns:rdf="http://www.w3.org/1999/02/22-rdf-syntax-ns#"
   xmlns:svg="http://www.w3.org/2000/svg"
   xmlns="http://www.w3.org/2000/svg"
   xmlns:sodipodi="http://sodipodi.sourceforge.net/DTD/sodipodi-0.dtd"
   xmlns:inkscape="http://www.inkscape.org/namespaces/inkscape"
   version="1.1"
   id="svg2"
   xml:space="preserve"
   width="2730.6667"
   height="2730.6667"
   viewBox="0 0 2730.6667 2730.6667"
   sodipodi:docname="Rfit Logo.ai"><metadata
     id="metadata8"><rdf:RDF><cc:Work
         rdf:about=""><dc:format>image/svg+xml</dc:format><dc:type
           rdf:resource="http://purl.org/dc/dcmitype/StillImage" /></cc:Work></rdf:RDF></metadata><defs
     id="defs6"><clipPath
       clipPathUnits="userSpaceOnUse"
       id="clipPath18"><path
         d="M 0,2048 H 2048 V 0 H 0 Z"
         id="path16" /></clipPath><clipPath
       clipPathUnits="userSpaceOnUse"
       id="clipPath26"><path
         d="M 274.44,1773.95 H 1774 V 274.236 H 274.44 Z"
         id="path24" /></clipPath><linearGradient
       x1="0"
       y1="0"
       x2="1"
       y2="0"
       gradientUnits="userSpaceOnUse"
       gradientTransform="matrix(1148.55,0,0,-1148.55,625.45001,1063.75)"
       spreadMethod="pad"
       id="linearGradient38"><stop
         style="stop-opacity:1;stop-color:#2e69eb"
         offset="0"
         id="stop32" /><stop
         style="stop-opacity:1;stop-color:#2e69eb"
         offset="0.02591077"
         id="stop34" /><stop
         style="stop-opacity:1;stop-color:#96b4f5"
         offset="1"
         id="stop36" /></linearGradient><linearGradient
       x1="0"
       y1="0"
       x2="1"
       y2="0"
       gradientUnits="userSpaceOnUse"
       gradientTransform="matrix(955.99701,0,0,-955.99701,767.28998,875.18713)"
       spreadMethod="pad"
       id="linearGradient50"><stop
         style="stop-opacity:1;stop-color:#2e69eb"
         offset="0"
         id="stop44" /><stop
         style="stop-opacity:1;stop-color:#2e69eb"
         offset="0.02591077"
         id="stop46" /><stop
         style="stop-opacity:1;stop-color:#96b4f5"
         offset="1"
         id="stop48" /></linearGradient><linearGradient
       x1="0"
       y1="0"
       x2="1"
       y2="0"
       gradientUnits="userSpaceOnUse"
       gradientTransform="matrix(1199.5062,0,0,-1199.5062,573.40375,1247.7054)"
       spreadMethod="pad"
       id="linearGradient62"><stop
         style="stop-opacity:1;stop-color:#2e69eb"
         offset="0"
         id="stop56" /><stop
         style="stop-opacity:1;stop-color:#2e69eb"
         offset="0.02591077"
         id="stop58" /><stop
         style="stop-opacity:1;stop-color:#96b4f5"
         offset="1"
         id="stop60" /></linearGradient><linearGradient
       x1="0"
       y1="0"
       x2="1"
       y2="0"
       gradientUnits="userSpaceOnUse"
       gradientTransform="matrix(1083.3,0,0,-1083.3,516.08002,848.62823)"
       spreadMethod="pad"
       id="linearGradient74"><stop
         style="stop-opacity:1;stop-color:#2e69eb"
         offset="0"
         id="stop68" /><stop
         style="stop-opacity:1;stop-color:#2e69eb"
         offset="0.02591077"
         id="stop70" /><stop
         style="stop-opacity:1;stop-color:#96b4f5"
         offset="1"
         id="stop72" /></linearGradient><linearGradient
       x1="0"
       y1="0"
       x2="1"
       y2="0"
       gradientUnits="userSpaceOnUse"
       gradientTransform="matrix(1199.6338,0,0,-1199.6338,275.85001,806.51654)"
       spreadMethod="pad"
       id="linearGradient86"><stop
         style="stop-opacity:1;stop-color:#2e69eb"
         offset="0"
         id="stop80" /><stop
         style="stop-opacity:1;stop-color:#2e69eb"
         offset="0.02591077"
         id="stop82" /><stop
         style="stop-opacity:1;stop-color:#96b4f5"
         offset="1"
         id="stop84" /></linearGradient><linearGradient
       x1="0"
       y1="0"
       x2="1"
       y2="0"
       gradientUnits="userSpaceOnUse"
       gradientTransform="matrix(1148.1801,0,0,-1148.1801,274.44,988.04498)"
       spreadMethod="pad"
       id="linearGradient98"><stop
         style="stop-opacity:1;stop-color:#2e69eb"
         offset="0"
         id="stop92" /><stop
         style="stop-opacity:1;stop-color:#2e69eb"
         offset="0.02591077"
         id="stop94" /><stop
         style="stop-opacity:1;stop-color:#96b4f5"
         offset="1"
         id="stop96" /></linearGradient><linearGradient
       x1="0"
       y1="0"
       x2="1"
       y2="0"
       gradientUnits="userSpaceOnUse"
       gradientTransform="matrix(1066.0601,0,0,-1066.0601,449.5,1199.675)"
       spreadMethod="pad"
       id="linearGradient110"><stop
         style="stop-opacity:1;stop-color:#2e69eb"
         offset="0"
         id="stop104" /><stop
         style="stop-opacity:1;stop-color:#2e69eb"
         offset="0.02591077"
         id="stop106" /><stop
         style="stop-opacity:1;stop-color:#96b4f5"
         offset="1"
         id="stop108" /></linearGradient><linearGradient
       x1="0"
       y1="0"
       x2="1"
       y2="0"
       gradientUnits="userSpaceOnUse"
       gradientTransform="matrix(958.20294,0,0,-958.20294,325.60706,1172.9658)"
       spreadMethod="pad"
       id="linearGradient122"><stop
         style="stop-opacity:1;stop-color:#2e69eb"
         offset="0"
         id="stop116" /><stop
         style="stop-opacity:1;stop-color:#2e69eb"
         offset="0.02591077"
         id="stop118" /><stop
         style="stop-opacity:1;stop-color:#96b4f5"
         offset="1"
         id="stop120" /></linearGradient></defs><sodipodi:namedview
     pagecolor="#ffffff"
     bordercolor="#666666"
     borderopacity="1"
     objecttolerance="10"
     gridtolerance="10"
     guidetolerance="10"
     inkscape:pageopacity="0"
     inkscape:pageshadow="2"
     inkscape:window-width="640"
     inkscape:window-height="480"
     id="namedview4" /><g
     id="g10"
     inkscape:groupmode="layer"
     inkscape:label="Rfit Logo"
     transform="matrix(1.3333333,0,0,-1.3333333,0,2730.6667)"><g
       id="g12"><g
         id="g14"
         clip-path="url(#clipPath18)"><g
           id="g20"><g
             id="g22" /><g
             id="g206"><g
               clip-path="url(#clipPath26)"
               id="g204"><g
                 id="g132"><g
                   id="g130"><g
                     id="g128"><g
                       id="g126"><path
                         d="m 1772.92,1064.58 c 0.72,-13.43 1.08,-26.96 1.08,-40.58 0,-13.62 -0.36,-27.15 -1.08,-40.58 0,-0.06 -0.01,-0.12 -0.01,-0.18 -9.31,-173.9 -77.87,-332.06 -185.84,-454.68 119.45,140.71 160.35,325.32 122.66,496.07 v 0.02 c -22.81,103.38 -74.43,201.69 -154.84,282.1 -43.2,43.21 -91.58,78.1 -143.12,104.68 -120.01,61.87 -257.23,78.69 -386.59,50.45 -93.16,-20.34 -182.25,-64.04 -257.89,-131.12 -79.4,-66.51 -132.59,-163.28 -141.84,-272.56 5.93,101.22 38.05,195.4 89.69,275.87 71.5,111.44 180.42,196.58 309.03,237.68 55.24,17.66 114.12,27.19 175.22,27.19 113.72,0 219.73,-33.02 308.97,-89.99 0,-0.01 0.01,-0.01 0.01,-0.01 149.16,-95.23 251.45,-257.41 264.54,-444.18 0,-0.06 0.01,-0.12 0.01,-0.18"
                         style="fill:url(#linearGradient38);stroke:none"
                         id="path124" /></g></g></g></g><g
                 id="g142"><g
                   id="g140"><g
                     id="g138"><g
                       id="g136"><path
                         d="m 1709.73,1024.63 c 37.69,-170.75 -3.21,-355.36 -122.66,-496.07 -0.03,-0.03 -0.06,-0.07 -0.1,-0.11 -56.03,-63.62 -122.68,-117.65 -197.17,-159.34 -0.04,-0.03 -0.07,-0.05 -0.11,-0.06 -2.38,-1.33 -4.77,-2.65 -7.17,-3.96 -1.28,-0.71 -2.57,-1.4 -3.85,-2.09 -2.68,-1.45 -5.37,-2.87 -8.06,-4.26 -1.53,-0.8 -3.07,-1.59 -4.6,-2.38 -1.49,-0.76 -2.98,-1.52 -4.48,-2.27 -94.02,-47.34 -195.94,-73.63 -298.72,-78.87 187.6,12.35 350.63,114.7 446.3,264.27 57.15,89.33 90.27,195.5 90.27,309.4 0,61.1 -9.53,119.98 -27.19,175.23 -41.17,128.81 -126.52,237.87 -238.22,309.36 -81.25,52.02 -176.43,84.15 -278.71,89.54 -95.46,7.37 -193.06,-19.39 -272.98,-80.3 -0.11,-0.07 -0.22,-0.15 -0.33,-0.24 -1.19,-0.9 -2.37,-1.82 -3.55,-2.74 -0.67,-0.52 -1.35,-1.05 -2.02,-1.59 -3.07,-2.41 -6.1,-4.88 -9.09,-7.39 75.64,67.08 164.73,110.78 257.89,131.12 129.36,28.24 266.58,11.42 386.59,-50.45 51.54,-26.58 99.92,-61.47 143.12,-104.68 80.41,-80.41 132.03,-178.72 154.84,-282.1 z"
                         style="fill:url(#linearGradient50);stroke:none"
                         id="path134" /></g></g></g></g><g
                 id="g152"><g
                   id="g150"><g
                     id="g148"><g
                       id="g146"><path
                         d="m 1515.56,1590.46 c 148.75,-129.2 246.12,-316.01 257.35,-525.7 -13.09,186.77 -115.38,348.95 -264.54,444.18 0,0 -0.01,0 -0.01,0.01 -89.24,56.97 -195.25,89.99 -308.97,89.99 -61.1,0 -119.98,-9.53 -175.22,-27.19 C 895.56,1530.65 786.64,1445.51 715.14,1334.07 663.5,1253.6 631.38,1159.42 625.45,1058.2 624.49,1046.93 624,1035.52 624,1024 c 0,-11.52 0.49,-22.93 1.45,-34.2 6.94,-81.99 38.61,-156.93 87.53,-217.34 -64.36,74.44 -106.46,161.47 -126.3,252.39 -28.24,129.36 -11.43,266.58 50.45,386.58 26.57,51.55 61.47,99.92 104.67,143.13 80.42,80.41 178.72,132.02 282.11,154.84 h 0.01 c 168.96,37.28 351.5,-2.36 491.64,-118.94"
                         style="fill:url(#linearGradient62);stroke:none"
                         id="path144" /></g></g></g></g><g
                 id="g162"><g
                   id="g160"><g
                     id="g158"><g
                       id="g156"><path
                         d="m 1572.19,1024.12 c 17.66,-55.25 27.19,-114.13 27.19,-175.23 0,-113.9 -33.12,-220.07 -90.27,-309.4 -95.67,-149.57 -258.7,-251.92 -446.3,-264.27 -195.06,-9.97 -393.28,55.86 -546.73,197.48 142.06,-127.96 332.54,-172.63 508.4,-133.98 103.57,22.75 202.07,74.4 282.61,154.94 43.2,43.21 78.1,91.58 104.68,143.14 61.97,120.19 78.73,257.66 50.3,387.19 -20.98,95.63 -66.58,186.92 -136.82,263.77 -4.65,5.31 -9.47,10.52 -14.45,15.63 -1.2,1.23 -2.41,2.46 -3.63,3.68 -1.22,1.22 -2.45,2.43 -3.68,3.64 -69.68,67.92 -158,105.37 -248.23,112.31 102.28,-5.39 197.46,-37.52 278.71,-89.54 111.7,-71.49 197.05,-180.55 238.22,-309.36"
                         style="fill:url(#linearGradient74);stroke:none"
                         id="path154" /></g></g></g></g><g
                 id="g172"><g
                   id="g170"><g
                     id="g168"><g
                       id="g166"><path
                         d="m 1462.07,1023.99 c 28.43,-129.53 11.67,-267 -50.3,-387.19 -26.58,-51.56 -61.48,-99.93 -104.68,-143.14 -80.54,-80.54 -179.04,-132.19 -282.61,-154.94 -175.86,-38.65 -366.34,6.02 -508.4,133.98 -0.15,0.13 -0.3,0.26 -0.44,0.4 -7.32,6.76 -14.53,13.69 -21.64,20.8 -28,28 -53.31,57.65 -75.96,88.65 -0.84,1.15 -1.67,2.3 -2.5,3.45 -0.83,1.15 -1.66,2.31 -2.48,3.46 -0.83,1.16 -1.65,2.31 -2.46,3.47 -1.64,2.32 -3.26,4.65 -4.86,6.98 -4.26,6.2 -8.42,12.44 -12.46,18.73 -2.15,3.34 -4.28,6.7 -6.37,10.08 -1.18,1.88 -2.34,3.77 -3.49,5.66 -5.33,8.76 -10.5,17.65 -15.48,26.64 -5.08,9.18 -9.98,18.48 -14.69,27.89 -2.71,5.39 -5.33,10.81 -7.88,16.25 -0.65,1.36 -1.28,2.72 -1.91,4.09 -1.81,3.89 -3.57,7.79 -5.29,11.7 -0.6,1.35 -1.19,2.7 -1.78,4.05 -0.72,1.64 -1.42,3.28 -2.12,4.92 -1.71,4.02 -3.39,8.04 -5.02,12.08 -1.94,4.79 -3.83,9.6 -5.68,14.42 -15.99,41.92 -28.08,84.98 -36.29,128.63 -0.3,1.6 -0.59,3.2 -0.88,4.8 -0.27,1.48 -0.53,2.96 -0.79,4.45 -0.2,1.1 -0.39,2.2 -0.57,3.3 -0.18,1.07 -0.36,2.13 -0.54,3.2 -0.14,0.8 -0.27,1.59 -0.39,2.39 -0.25,1.53 -0.49,3.06 -0.73,4.59 -3.56,22.97 -6.1,46.28 -7.53,69.9 14.68,-184.25 116.24,-344.03 263.69,-438.35 89.33,-57.15 195.5,-90.27 309.4,-90.27 61.1,0 119.98,9.53 175.23,27.19 128.81,41.17 237.87,126.52 309.36,238.22 50.74,79.26 82.56,171.78 89.09,271.21 0.68,7.05 1.16,14.16 1.46,21.31 0.24,5.62 0.36,11.28 0.36,16.96 0,5.68 -0.12,11.34 -0.36,16.96 -1.79,43.08 -10.4,84.41 -24.8,122.92 -0.52,1.4 -1.05,2.8 -1.59,4.2 -0.57,1.49 -1.15,2.98 -1.75,4.46 -0.44,1.13 -0.9,2.26 -1.37,3.38 -0.35,0.88 -0.72,1.77 -1.09,2.65 -0.06,0.16 -0.13,0.32 -0.21,0.48 -0.51,1.26 -1.05,2.52 -1.6,3.77 -16.14,37.45 -38.28,72.93 -66.42,104.99 70.24,-76.85 115.84,-168.14 136.82,-263.77"
                         style="fill:url(#linearGradient86);stroke:none"
                         id="path164" /></g></g></g></g><g
                 id="g182"><g
                   id="g180"><g
                     id="g178"><g
                       id="g176"><path
                         d="m 1422.62,985.68 c -6.53,-99.43 -38.35,-191.95 -89.09,-271.21 -71.49,-111.7 -180.55,-197.05 -309.36,-238.22 -55.25,-17.66 -114.13,-27.19 -175.23,-27.19 -113.9,0 -220.07,33.12 -309.4,90.27 -147.45,94.32 -249.01,254.1 -263.69,438.35 -0.84,13.71 -1.3,27.52 -1.39,41.42 v 0.33 c -0.02,1.51 -0.02,3.01 -0.02,4.52 0,1.51 0,3.01 0.02,4.52 v 0.33 c 1.21,191.68 74.33,366.29 193.74,498.23 C 343.95,1385.58 300.9,1197.69 339.05,1024.08 361.8,920.5 413.46,822.01 494,741.47 c 43.2,-43.2 91.58,-78.1 143.13,-104.68 120.19,-61.97 257.66,-78.74 387.2,-50.3 93.86,20.59 183.53,64.89 259.48,132.95 0.06,0.04 0.12,0.1 0.18,0.15 76.85,65.6 128.55,159.78 138.63,266.09"
                         style="fill:url(#linearGradient98);stroke:none"
                         id="path174" /></g></g></g></g><g
                 id="g192"><g
                   id="g190"><g
                     id="g188"><g
                       id="g186"><path
                         d="m 1213.07,1749.96 c 113.51,-29.48 216.58,-84.88 302.49,-159.5 -140.14,116.58 -322.68,156.22 -491.64,118.94 h -0.01 c -103.39,-22.82 -201.69,-74.43 -282.11,-154.84 -43.2,-43.21 -78.1,-91.58 -104.67,-143.13 -61.88,-120 -78.69,-257.22 -50.45,-386.58 19.84,-90.92 61.94,-177.95 126.3,-252.39 59.59,-73.59 144.77,-125.61 242.01,-142.5 2.73,-0.49 5.47,-0.94 8.22,-1.35 1.14,-0.17 2.28,-0.34 3.42,-0.51 1.54,-0.23 3.09,-0.45 4.64,-0.64 0.05,-0.01 0.09,-0.01 0.14,-0.02 1.54,-0.2 3.07,-0.4 4.62,-0.58 0.33,-0.04 0.67,-0.08 1.01,-0.12 1.23,-0.15 2.47,-0.29 3.71,-0.42 1.18,-0.13 2.37,-0.26 3.56,-0.37 1.3,-0.13 2.6,-0.26 3.9,-0.37 0.02,0 0.04,-0.01 0.06,0 0.45,-0.05 0.9,-0.09 1.35,-0.12 0.21,-0.02 0.41,-0.04 0.62,-0.06 -101.22,5.93 -195.4,38.05 -275.87,89.69 -111.44,71.5 -196.58,180.42 -237.68,309.03 -17.66,55.24 -27.19,114.12 -27.19,175.22 0,113.72 33.02,219.73 89.99,308.97 0.01,0 0.01,0.01 0.01,0.01 95.23,149.16 257.41,251.45 444.18,264.54 0.06,0 0.12,0.01 0.18,0.01 13.43,0.72 26.96,1.08 40.58,1.08 13.62,0 27.15,-0.36 40.58,-1.08 0.06,0 0.12,-0.01 0.18,-0.01 3.75,-0.2 7.5,-0.43 11.24,-0.68 0.48,-0.03 0.96,-0.06 1.45,-0.1 1.51,-0.11 3.02,-0.22 4.53,-0.33 0.13,-0.01 0.26,-0.02 0.4,-0.03 1.82,-0.15 3.63,-0.3 5.45,-0.45 1.53,-0.13 3.06,-0.26 4.59,-0.4 0.94,-0.08 1.87,-0.17 2.81,-0.26 0.3,-0.03 0.61,-0.06 0.91,-0.09 0.29,-0.02 0.57,-0.05 0.86,-0.08 0.21,-0.02 0.42,-0.04 0.62,-0.06 0.53,-0.05 1.06,-0.11 1.59,-0.16 0.18,-0.02 0.36,-0.04 0.53,-0.05 0.82,-0.08 1.63,-0.17 2.44,-0.25 0.47,-0.05 0.95,-0.1 1.42,-0.15 0.55,-0.06 1.1,-0.12 1.66,-0.18 1.09,-0.12 2.18,-0.24 3.27,-0.36 0.41,-0.05 0.82,-0.09 1.23,-0.14 1.25,-0.14 2.5,-0.29 3.75,-0.44 0.83,-0.1 1.65,-0.2 2.48,-0.3 0.93,-0.12 1.85,-0.23 2.78,-0.34 1.51,-0.2 3.03,-0.4 4.54,-0.6 1.47,-0.19 2.93,-0.39 4.4,-0.6 1.73,-0.24 3.46,-0.48 5.19,-0.73 0.9,-0.14 1.81,-0.27 2.71,-0.41 1.85,-0.28 3.7,-0.56 5.54,-0.85 4.16,-0.66 8.31,-1.34 12.47,-2.07 4.14,-0.73 8.29,-1.49 12.43,-2.28 1.38,-0.27 2.76,-0.53 4.14,-0.81 2.7,-0.53 5.4,-1.08 8.09,-1.64 3.21,-0.68 6.41,-1.37 9.6,-2.08 2.65,-0.59 5.29,-1.19 7.93,-1.82 2.21,-0.52 4.41,-1.04 6.61,-1.59 1.83,-0.44 3.66,-0.89 5.48,-1.36 1.58,-0.4 3.16,-0.8 4.73,-1.21"
                         style="fill:url(#linearGradient110);stroke:none"
                         id="path184" /></g></g></g></g><g
                 id="g202"><g
                   id="g200"><g
                     id="g198"><g
                       id="g196"><path
                         d="m 1058.64,625.4 c 85.57,7.24 163.46,41.42 225.17,94.04 C 1207.86,651.38 1118.19,607.08 1024.33,586.49 894.79,558.05 757.32,574.82 637.13,636.79 585.58,663.37 537.2,698.27 494,741.47 413.46,822.01 361.8,920.5 339.05,1024.08 c -38.15,173.61 4.9,361.5 129.15,502.95 0.07,0.09 0.15,0.18 0.22,0.26 91.83,101.36 210.97,177.5 345.8,216.8 1.46,0.43 2.92,0.85 4.38,1.26 1.02,0.3 2.05,0.59 3.07,0.87 1.88,0.53 3.77,1.05 5.65,1.56 4.31,1.16 8.63,2.3 12.96,3.39 3.01,0.76 6.03,1.5 9.06,2.23 1.33,0.32 2.66,0.63 3.99,0.94 0.89,0.21 1.78,0.41 2.68,0.62 1.41,0.33 2.83,0.65 4.25,0.96 0.96,0.21 1.93,0.43 2.9,0.64 1.09,0.24 2.18,0.48 3.27,0.71 0.94,0.2 1.89,0.4 2.84,0.6 1.21,0.26 2.42,0.51 3.63,0.75 0.88,0.19 1.77,0.37 2.66,0.55 1.37,0.28 2.75,0.55 4.13,0.82 1.47,0.29 2.95,0.57 4.43,0.85 1.32,0.25 2.64,0.5 3.96,0.74 1.01,0.18 2.02,0.37 3.03,0.55 1.17,0.21 2.34,0.42 3.52,0.62 2.6,0.46 5.21,0.9 7.82,1.33 1.31,0.21 2.63,0.43 3.94,0.63 1.25,0.2 2.49,0.39 3.73,0.58 0.5,0.08 1.01,0.16 1.51,0.23 4.23,0.64 8.47,1.24 12.73,1.81 1.51,0.2 3.01,0.4 4.51,0.59 2.26,0.29 4.52,0.57 6.79,0.83 15.86,1.87 31.88,3.24 48.02,4.11 -186.77,-13.09 -348.95,-115.38 -444.18,-264.54 0,0 0,-0.01 -0.01,-0.01 -56.97,-89.24 -89.99,-195.25 -89.99,-308.97 0,-61.1 9.53,-119.98 27.19,-175.22 41.1,-128.61 126.24,-237.53 237.68,-309.03 80.47,-51.64 174.65,-83.76 275.87,-89.69 11.27,-0.96 22.68,-1.45 34.2,-1.45 11.52,0 22.93,0.49 34.2,1.45"
                         style="fill:url(#linearGradient122);stroke:none"
                         id="path194" /></g></g></g></g></g></g></g><g
           id="g208"
           transform="translate(1208.3398,1751.1699)"><path
             d="m 0,0 c 1.58,-0.4 3.16,-0.8 4.73,-1.21 113.51,-29.48 216.581,-84.88 302.49,-159.5 148.75,-129.2 246.12,-316.01 257.35,-525.7"
             style="fill:none;stroke:#6b94f1;stroke-width:0.1;stroke-linecap:butt;stroke-linejoin:miter;stroke-miterlimit:10;stroke-dasharray:none;stroke-opacity:1"
             id="path210" /></g><g
           id="g212"
           transform="translate(1196.25,1754.1201)"><path
             d="M 0,0 C 2.21,-0.52 4.41,-1.05 6.61,-1.59"
             style="fill:none;stroke:#6b94f1;stroke-width:0.1;stroke-linecap:butt;stroke-linejoin:miter;stroke-miterlimit:10;stroke-dasharray:none;stroke-opacity:1"
             id="path214" /></g><g
           id="g216"
           transform="translate(1141.5898,1764.8198)"><path
             d="M 0,0 C 4.17,-0.65 8.32,-1.34 12.47,-2.07"
             style="fill:none;stroke:#6b94f1;stroke-width:0.1;stroke-linecap:butt;stroke-linejoin:miter;stroke-miterlimit:10;stroke-dasharray:none;stroke-opacity:1"
             id="path218" /></g><g
           id="g220"
           transform="translate(1133.3398,1766.0801)"><path
             d="M 0,0 C 0.91,-0.14 1.811,-0.27 2.71,-0.41"
             style="fill:none;stroke:#6b94f1;stroke-width:0.1;stroke-linecap:butt;stroke-linejoin:miter;stroke-miterlimit:10;stroke-dasharray:none;stroke-opacity:1"
             id="path222" /></g><g
           id="g224"
           transform="translate(1123.75,1767.4102)"><path
             d="M 0,0 C 1.47,-0.19 2.93,-0.39 4.4,-0.6"
             style="fill:none;stroke:#6b94f1;stroke-width:0.1;stroke-linecap:butt;stroke-linejoin:miter;stroke-miterlimit:10;stroke-dasharray:none;stroke-opacity:1"
             id="path226" /></g><g
           id="g228"
           transform="translate(1110.2002,1769.0898)"><path
             d="M 0,0 C 0.5,-0.05 1,-0.11 1.5,-0.17"
             style="fill:none;stroke:#6b94f1;stroke-width:0.1;stroke-linecap:butt;stroke-linejoin:miter;stroke-miterlimit:10;stroke-dasharray:none;stroke-opacity:1"
             id="path230" /></g><g
           id="g232"
           transform="translate(1087.29,1771.3599)"><path
             d="M 0,0 C 0.33,-0.02 0.66,-0.05 0.979,-0.09 1.1,-0.09 1.22,-0.1 1.33,-0.11"
             style="fill:none;stroke:#6b94f1;stroke-width:0.1;stroke-linecap:butt;stroke-linejoin:miter;stroke-miterlimit:10;stroke-dasharray:none;stroke-opacity:1"
             id="path234" /></g><g
           id="g236"
           transform="translate(1019.8701,1773.98)"><path
             d="m 0,0 c 1.38,0.02 2.75,0.02 4.13,0.02 0.76,0 1.51,0 2.26,-0.01"
             style="fill:none;stroke:#6b94f1;stroke-width:0.1;stroke-linecap:butt;stroke-linejoin:miter;stroke-miterlimit:10;stroke-dasharray:none;stroke-opacity:1"
             id="path238" /></g><g
           id="g240"
           transform="translate(559.0698,1612.54)"><path
             d="m 0,0 c 119.03,94.16 267.32,152.98 428.99,160.61 6.66,0.32 13.35,0.54 20.06,0.67"
             style="fill:none;stroke:#6b94f1;stroke-width:0.1;stroke-linecap:butt;stroke-linejoin:miter;stroke-miterlimit:10;stroke-dasharray:none;stroke-opacity:1"
             id="path242" /></g><g
           id="g244"
           transform="translate(274.02,1019.1504)"><path
             d="m 0,0 v 0.33 c -0.02,1.51 -0.02,3.01 -0.02,4.52 0,1.509 0,3.009 0.02,4.52 V 9.7 c 1.45,229.31 105.82,434.21 269.23,570.82"
             style="fill:none;stroke:#6b94f1;stroke-width:0.1;stroke-linecap:butt;stroke-linejoin:miter;stroke-miterlimit:10;stroke-dasharray:none;stroke-opacity:1"
             id="path246" /></g><g
           id="g248"
           transform="translate(624.7002,1041.4199)"><path
             d="M 0,0 C 0.17,5.61 0.42,11.21 0.75,16.78"
             style="fill:none;stroke:#6b94f1;stroke-width:0.1;stroke-linecap:butt;stroke-linejoin:miter;stroke-miterlimit:10;stroke-dasharray:none;stroke-opacity:1"
             id="path250" /></g><g
           id="g252"
           transform="translate(624.4702,1029.1201)"><path
             d="m 0,0 c 0.03,3.79 0.1,7.56 0.2,11.33 0.01,0.23 0.02,0.45 0.02,0.68"
             style="fill:none;stroke:#6b94f1;stroke-width:0.1;stroke-linecap:butt;stroke-linejoin:miter;stroke-miterlimit:10;stroke-dasharray:none;stroke-opacity:1"
             id="path254" /></g><g
           id="g256"
           transform="translate(625.4502,989.7998)"><path
             d="m 0,0 c -0.35,5.91 -0.61,11.851 -0.78,17.811 0,0.179 -0.01,0.349 -0.01,0.529 -0.1,3.54 -0.16,7.08 -0.19,10.64"
             style="fill:none;stroke:#6b94f1;stroke-width:0.1;stroke-linecap:butt;stroke-linejoin:miter;stroke-miterlimit:10;stroke-dasharray:none;stroke-opacity:1"
             id="path258" /></g><g
           id="g260"
           transform="translate(1774.2402,1013.79)"><path
             d="M 0,0 C -0.181,-10.19 -0.62,-20.32 -1.32,-30.37"
             style="fill:none;stroke:#6b94f1;stroke-width:0.1;stroke-linecap:butt;stroke-linejoin:miter;stroke-miterlimit:10;stroke-dasharray:none;stroke-opacity:1"
             id="path262" /></g><g
           id="g264"
           transform="translate(1772.9199,1064.5801)"><path
             d="M 0,0 C 0.8,-11.47 1.26,-23.03 1.38,-34.68"
             style="fill:none;stroke:#6b94f1;stroke-width:0.1;stroke-linecap:butt;stroke-linejoin:miter;stroke-miterlimit:10;stroke-dasharray:none;stroke-opacity:1"
             id="path266" /></g><g
           id="g268"
           transform="translate(1423.6396,1040.96)"><path
             d="M 0,0 C 0.17,-5.63 0.25,-11.29 0.25,-16.96 0.25,-22.63 0.17,-28.29 0,-33.92"
             style="fill:none;stroke:#6b94f1;stroke-width:0.1;stroke-linecap:butt;stroke-linejoin:miter;stroke-miterlimit:10;stroke-dasharray:none;stroke-opacity:1"
             id="path270" /></g><g
           id="g272"
           transform="translate(1015.73,624.0898)"><path
             d="M 0,0 C -2.84,0.05 -5.66,0.141 -8.48,0.26"
             style="fill:none;stroke:#6b94f1;stroke-width:0.1;stroke-linecap:butt;stroke-linejoin:miter;stroke-miterlimit:10;stroke-dasharray:none;stroke-opacity:1"
             id="path274" /></g><g
           id="g276"
           transform="translate(1026.9502,624.0195)"><path
             d="M 0,0 C -0.601,-0.01 -1.2,-0.01 -1.8,-0.01"
             style="fill:none;stroke:#6b94f1;stroke-width:0.1;stroke-linecap:butt;stroke-linejoin:miter;stroke-miterlimit:10;stroke-dasharray:none;stroke-opacity:1"
             id="path278" /></g><g
           id="g280"
           transform="translate(1040.96,624.3604)"><path
             d="M 0,0 C -1.4,-0.061 -2.81,-0.11 -4.22,-0.16 -5.63,-0.2 -7.04,-0.24 -8.46,-0.271"
             style="fill:none;stroke:#6b94f1;stroke-width:0.1;stroke-linecap:butt;stroke-linejoin:miter;stroke-miterlimit:10;stroke-dasharray:none;stroke-opacity:1"
             id="path282" /></g><g
           id="g284"
           transform="translate(625.4502,1058.2002)"><path
             d="m 0,0 c 5.93,101.22 38.05,195.4 89.69,275.87 71.5,111.44 180.42,196.58 309.03,237.68 55.24,17.66 114.12,27.19 175.219,27.19 113.721,0 219.731,-33.02 308.971,-89.99 0,-0.01 0.01,-0.01 0.01,-0.01 149.16,-95.23 251.45,-257.41 264.54,-444.18 0,-0.06 0.01,-0.12 0.01,-0.18 0.719,-13.43 1.08,-26.96 1.08,-40.58 0,-13.62 -0.361,-27.151 -1.08,-40.58 0,-0.06 -0.01,-0.12 -0.01,-0.18 -9.311,-173.9 -77.87,-332.061 -185.84,-454.681"
             style="fill:none;stroke:#6b94f1;stroke-width:0.1;stroke-linecap:butt;stroke-linejoin:miter;stroke-miterlimit:10;stroke-dasharray:none;stroke-opacity:1"
             id="path286" /></g><g
           id="g288"
           transform="translate(275.54,981.6504)"><path
             d="M 0,0 C 0.09,-1.33 0.2,-2.65 0.31,-3.971 14.99,-188.221 116.55,-348 264,-442.32 c 89.33,-57.151 195.5,-90.271 309.4,-90.271 61.1,0 119.98,9.53 175.23,27.191 128.81,41.17 237.87,126.519 309.36,238.219 50.739,79.261 82.56,171.781 89.09,271.21 0.12,1.66 0.22,3.321 0.31,4.991 0.01,0.12 0.02,0.25 0.02,0.379 0.31,5.311 0.54,10.641 0.69,15.991"
             style="fill:none;stroke:#6b94f1;stroke-width:0.1;stroke-linecap:butt;stroke-linejoin:miter;stroke-miterlimit:10;stroke-dasharray:none;stroke-opacity:1"
             id="path290" /></g><g
           id="g292"
           transform="translate(934.3901,279.2998)"><path
             d="m 0,0 c -1.01,0.12 -2.01,0.24 -3.01,0.37 -368.94,45.441 -654.96,358.811 -657.36,739.481 0.1,-12.151 0.58,-24.201 1.43,-36.161 0.02,-0.379 0.05,-0.77 0.08,-1.15"
             style="fill:none;stroke:#6b94f1;stroke-width:0.1;stroke-linecap:butt;stroke-linejoin:miter;stroke-miterlimit:10;stroke-dasharray:none;stroke-opacity:1"
             id="path294" /></g><g
           id="g296"
           transform="translate(993.1802,274.6299)"><path
             d="m 0,0 c -11.64,0.46 -23.2,1.19 -34.69,2.19 -2.06,0.18 -4.11,0.36 -6.16,0.56"
             style="fill:none;stroke:#6b94f1;stroke-width:0.1;stroke-linecap:butt;stroke-linejoin:miter;stroke-miterlimit:10;stroke-dasharray:none;stroke-opacity:1"
             id="path298" /></g><g
           id="g300"
           transform="translate(1002.0098,274.3203)"><path
             d="M 0,0 C -1.88,0.05 -3.75,0.109 -5.62,0.189"
             style="fill:none;stroke:#6b94f1;stroke-width:0.1;stroke-linecap:butt;stroke-linejoin:miter;stroke-miterlimit:10;stroke-dasharray:none;stroke-opacity:1"
             id="path302" /></g><g
           id="g304"
           transform="translate(1028,274.0098)"><path
             d="m 0,0 c -1.34,-0.01 -2.67,-0.01 -4,-0.01 -3.22,0 -6.44,0.02 -9.66,0.06 -1.6,0.02 -3.21,0.051 -4.81,0.08"
             style="fill:none;stroke:#6b94f1;stroke-width:0.1;stroke-linecap:butt;stroke-linejoin:miter;stroke-miterlimit:10;stroke-dasharray:none;stroke-opacity:1"
             id="path306" /></g><g
           id="g308"
           transform="translate(1090.8604,276.9404)"><path
             d="M 0,0 C -4.57,-0.41 -9.16,-0.771 -13.761,-1.091 -25.511,-1.91 -37.341,-2.46 -49.23,-2.73 -53.521,-2.83 -57.811,-2.9 -62.11,-2.931"
             style="fill:none;stroke:#6b94f1;stroke-width:0.1;stroke-linecap:butt;stroke-linejoin:miter;stroke-miterlimit:10;stroke-dasharray:none;stroke-opacity:1"
             id="path310" /></g><g
           id="g312"
           transform="translate(1120.96,280.21)"><path
             d="M 0,0 C -3.03,-0.39 -6.05,-0.76 -9.09,-1.12"
             style="fill:none;stroke:#6b94f1;stroke-width:0.1;stroke-linecap:butt;stroke-linejoin:miter;stroke-miterlimit:10;stroke-dasharray:none;stroke-opacity:1"
             id="path314" /></g><g
           id="g316"
           transform="translate(1170.2998,288.2598)"><path
             d="M 0,0 C -1.47,-0.29 -2.95,-0.58 -4.439,-0.859 -5.88,-1.14 -7.319,-1.41 -8.77,-1.68"
             style="fill:none;stroke:#6b94f1;stroke-width:0.1;stroke-linecap:butt;stroke-linejoin:miter;stroke-miterlimit:10;stroke-dasharray:none;stroke-opacity:1"
             id="path318" /></g><g
           id="g320"
           transform="translate(1183.5703,291.0098)"><path
             d="M 0,0 C -1.471,-0.319 -2.94,-0.63 -4.41,-0.939 -5.88,-1.25 -7.36,-1.56 -8.83,-1.859"
             style="fill:none;stroke:#6b94f1;stroke-width:0.1;stroke-linecap:butt;stroke-linejoin:miter;stroke-miterlimit:10;stroke-dasharray:none;stroke-opacity:1"
             id="path322" /></g><g
           id="g324"
           transform="translate(1366.0098,356.3604)"><path
             d="M 0,0 C -1.49,-0.771 -2.979,-1.53 -4.479,-2.271 -56.31,-28.46 -111.58,-48.79 -169.45,-62.41"
             style="fill:none;stroke:#6b94f1;stroke-width:0.1;stroke-linecap:butt;stroke-linejoin:miter;stroke-miterlimit:10;stroke-dasharray:none;stroke-opacity:1"
             id="path326" /></g><g
           id="g328"
           transform="translate(1389.6904,369.0498)"><path
             d="M 0,0 C -2.381,-1.33 -4.771,-2.649 -7.171,-3.96"
             style="fill:none;stroke:#6b94f1;stroke-width:0.1;stroke-linecap:butt;stroke-linejoin:miter;stroke-miterlimit:10;stroke-dasharray:none;stroke-opacity:1"
             id="path330" /></g><g
           id="g332"
           transform="translate(1586.9697,528.4502)"><path
             d="M 0,0 C -56.029,-63.62 -122.68,-117.65 -197.17,-159.34"
             style="fill:none;stroke:#6b94f1;stroke-width:0.1;stroke-linecap:butt;stroke-linejoin:miter;stroke-miterlimit:10;stroke-dasharray:none;stroke-opacity:1"
             id="path334" /></g><g
           id="g336"
           transform="translate(1087.9404,1418.9199)"><path
             d="m 0,0 c 185.079,-29.74 327.72,-186.45 335.699,-377.96 0.24,-5.62 0.361,-11.28 0.361,-16.96 0,-5.68 -0.121,-11.34 -0.361,-16.96 -4.21,-101.07 -45.939,-192.45 -111.62,-260.59 -4.079,-4.24 -8.26,-8.4 -12.539,-12.46 -17.311,-16.45 -36.101,-31.37 -56.141,-44.54 -1.28,-0.84 -2.549,-1.67 -3.839,-2.49 -1.281,-0.82 -2.571,-1.64 -3.861,-2.44"
             style="fill:none;stroke:#6b94f1;stroke-width:0.1;stroke-linecap:butt;stroke-linejoin:miter;stroke-miterlimit:10;stroke-dasharray:none;stroke-opacity:1"
             id="path338" /></g><g
           id="g340"
           transform="translate(1066.9199,1421.7202)"><path
             d="M 0,0 C 1.33,-0.14 2.65,-0.29 3.96,-0.45"
             style="fill:none;stroke:#6b94f1;stroke-width:0.1;stroke-linecap:butt;stroke-linejoin:miter;stroke-miterlimit:10;stroke-dasharray:none;stroke-opacity:1"
             id="path342" /></g><g
           id="g344"
           transform="translate(1044.5098,1423.4902)"><path
             d="m 0,0 c 3.15,-0.16 6.29,-0.36 9.41,-0.59 1.64,-0.12 3.28,-0.25 4.91,-0.39 1.63,-0.14 3.26,-0.29 4.88,-0.45 0.96,-0.1 1.92,-0.2 2.87,-0.31"
             style="fill:none;stroke:#6b94f1;stroke-width:0.1;stroke-linecap:butt;stroke-linejoin:miter;stroke-miterlimit:10;stroke-dasharray:none;stroke-opacity:1"
             id="path346" /></g><g
           id="g348"
           transform="translate(1034.3096,1423.8701)"><path
             d="M 0,0 C 1.61,-0.04 3.21,-0.09 4.811,-0.15"
             style="fill:none;stroke:#6b94f1;stroke-width:0.1;stroke-linecap:butt;stroke-linejoin:miter;stroke-miterlimit:10;stroke-dasharray:none;stroke-opacity:1"
             id="path350" /></g><g
           id="g352"
           transform="translate(782.2798,1342.7202)"><path
             d="m 0,0 c 65.87,50.04 147.72,80.12 236.55,81.25 h 0.52"
             style="fill:none;stroke:#6b94f1;stroke-width:0.1;stroke-linecap:butt;stroke-linejoin:miter;stroke-miterlimit:10;stroke-dasharray:none;stroke-opacity:1"
             id="path354" /></g><g
           id="g356"
           transform="translate(778.3999,1339.7402)"><path
             d="M 0,0 C 1.18,0.92 2.36,1.83 3.55,2.74"
             style="fill:none;stroke:#6b94f1;stroke-width:0.1;stroke-linecap:butt;stroke-linejoin:miter;stroke-miterlimit:10;stroke-dasharray:none;stroke-opacity:1"
             id="path358" /></g><g
           id="g360"
           transform="translate(963.21,628.6104)"><path
             d="m 0,0 c -2.75,0.409 -5.49,0.859 -8.22,1.35 -97.24,16.889 -182.42,68.91 -242.01,142.5 -48.92,60.41 -80.59,135.349 -87.53,217.339 -0.96,11.271 -1.45,22.681 -1.45,34.201 0,11.52 0.49,22.93 1.45,34.2 9.25,109.28 62.44,206.05 141.84,272.559 2.99,2.511 6.02,4.981 9.09,7.391"
             style="fill:none;stroke:#6b94f1;stroke-width:0.1;stroke-linecap:butt;stroke-linejoin:miter;stroke-miterlimit:10;stroke-dasharray:none;stroke-opacity:1"
             id="path362" /></g><g
           id="g364"
           transform="translate(971.27,627.46)"><path
             d="M 0,0 C -1.55,0.19 -3.1,0.41 -4.64,0.64"
             style="fill:none;stroke:#6b94f1;stroke-width:0.1;stroke-linecap:butt;stroke-linejoin:miter;stroke-miterlimit:10;stroke-dasharray:none;stroke-opacity:1"
             id="path366" /></g><g
           id="g368"
           transform="translate(1214.1504,672.0303)"><path
             d="m 0,0 c -48,-26.011 -101.91,-42.46 -159.2,-46.84 -4.641,-0.36 -9.311,-0.631 -13.99,-0.83 -5.63,-0.17 -11.29,-0.25 -16.96,-0.25 -5.26,0 -10.51,0.069 -15.741,0.22 -0.339,0 -0.67,0.01 -1.009,0.019 -0.07,0.011 -0.141,0.011 -0.21,0.011 -5.38,0.22 -10.741,0.56 -16.06,1 -0.46,0.029 -0.911,0.06 -1.36,0.1"
             style="fill:none;stroke:#6b94f1;stroke-width:0.1;stroke-linecap:butt;stroke-linejoin:miter;stroke-miterlimit:10;stroke-dasharray:none;stroke-opacity:1"
             id="path370" /></g><g
           id="g372"
           transform="translate(1218.7002,674.5195)"><path
             d="M 0,0 C -0.641,-0.359 -1.29,-0.72 -1.94,-1.069"
             style="fill:none;stroke:#6b94f1;stroke-width:0.1;stroke-linecap:butt;stroke-linejoin:miter;stroke-miterlimit:10;stroke-dasharray:none;stroke-opacity:1"
             id="path374" /></g><g
           id="g376"
           transform="translate(1226.0098,678.7002)"><path
             d="M 0,0 C -1.34,-0.8 -2.689,-1.58 -4.05,-2.351"
             style="fill:none;stroke:#6b94f1;stroke-width:0.1;stroke-linecap:butt;stroke-linejoin:miter;stroke-miterlimit:10;stroke-dasharray:none;stroke-opacity:1"
             id="path378" /></g><g
           id="g380"
           transform="translate(935.6602,1768.75)"><path
             d="M 0,0 C 15.86,1.87 31.88,3.24 48.02,4.11"
             style="fill:none;stroke:#6b94f1;stroke-width:0.1;stroke-linecap:butt;stroke-linejoin:miter;stroke-miterlimit:10;stroke-dasharray:none;stroke-opacity:1"
             id="path382" /></g><g
           id="g384"
           transform="translate(911.6299,1765.52)"><path
             d="m 0,0 c 4.23,0.64 8.47,1.24 12.73,1.81 1.51,0.2 3.01,0.4 4.51,0.59"
             style="fill:none;stroke:#6b94f1;stroke-width:0.1;stroke-linecap:butt;stroke-linejoin:miter;stroke-miterlimit:10;stroke-dasharray:none;stroke-opacity:1"
             id="path386" /></g><g
           id="g388"
           transform="translate(827.3198,1747.7798)"><path
             d="M 0,0 C 4.31,1.16 8.63,2.3 12.96,3.39"
             style="fill:none;stroke:#6b94f1;stroke-width:0.1;stroke-linecap:butt;stroke-linejoin:miter;stroke-miterlimit:10;stroke-dasharray:none;stroke-opacity:1"
             id="path390" /></g><g
           id="g392"
           transform="translate(468.4199,1527.29)"><path
             d="m 0,0 c 91.83,101.36 210.97,177.5 345.8,216.8 1.46,0.43 2.92,0.85 4.38,1.26 1.02,0.29 2.04,0.58 3.07,0.87"
             style="fill:none;stroke:#6b94f1;stroke-width:0.1;stroke-linecap:butt;stroke-linejoin:miter;stroke-miterlimit:10;stroke-dasharray:none;stroke-opacity:1"
             id="path394" /></g><g
           id="g396"
           transform="translate(283.3799,907.7803)"><path
             d="m 0,0 c -3.56,22.97 -6.1,46.279 -7.53,69.899 -0.84,13.71 -1.3,27.521 -1.39,41.42 v 0.33 c -0.02,1.511 -0.02,3.011 -0.02,4.521 0,1.51 0,3.01 0.02,4.52 v 0.33 c 1.21,191.68 74.33,366.29 193.74,498.23"
             style="fill:none;stroke:#6b94f1;stroke-width:0.1;stroke-linecap:butt;stroke-linejoin:miter;stroke-miterlimit:10;stroke-dasharray:none;stroke-opacity:1"
             id="path398" /></g><g
           id="g400"
           transform="translate(323.5698,756.4199)"><path
             d="M 0,0 C -15.76,41.25 -27.98,84.25 -36.29,128.63"
             style="fill:none;stroke:#6b94f1;stroke-width:0.1;stroke-linecap:butt;stroke-linejoin:miter;stroke-miterlimit:10;stroke-dasharray:none;stroke-opacity:1"
             id="path402" /></g><g
           id="g404"
           transform="translate(383.4199,634.3799)"><path
             d="m 0,0 c -5.33,8.76 -10.5,17.65 -15.48,26.64 -5.08,9.18 -9.98,18.48 -14.69,27.89"
             style="fill:none;stroke:#6b94f1;stroke-width:0.1;stroke-linecap:butt;stroke-linejoin:miter;stroke-miterlimit:10;stroke-dasharray:none;stroke-opacity:1"
             id="path406" /></g><g
           id="g408"
           transform="translate(393.2798,618.6396)"><path
             d="M 0,0 C -2.15,3.341 -4.28,6.7 -6.37,10.08"
             style="fill:none;stroke:#6b94f1;stroke-width:0.1;stroke-linecap:butt;stroke-linejoin:miter;stroke-miterlimit:10;stroke-dasharray:none;stroke-opacity:1"
             id="path410" /></g><g
           id="g412"
           transform="translate(505.2002,482.7598)"><path
             d="m 0,0 c -31.89,30.601 -61.08,63.99 -87.16,99.79 -0.85,1.141 -1.68,2.29 -2.5,3.45 -0.84,1.151 -1.67,2.3 -2.48,3.46 -0.83,1.151 -1.65,2.31 -2.46,3.47 -1.64,2.32 -3.25,4.641 -4.86,6.98"
             style="fill:none;stroke:#6b94f1;stroke-width:0.1;stroke-linecap:butt;stroke-linejoin:miter;stroke-miterlimit:10;stroke-dasharray:none;stroke-opacity:1"
             id="path414" /></g><g
           id="g416"
           transform="translate(722.48,337.21)"><path
             d="M 0,0 C -80.85,35.62 -154.23,85.08 -217.12,145.4"
             style="fill:none;stroke:#6b94f1;stroke-width:0.1;stroke-linecap:butt;stroke-linejoin:miter;stroke-miterlimit:10;stroke-dasharray:none;stroke-opacity:1"
             id="path418" /></g><g
           id="g420"
           transform="translate(1029.29,273.9697)"><path
             d="m 0,0 h -0.33 c -1.51,-0.02 -3.01,-0.02 -4.52,-0.02 -1.51,0 -3.01,0 -4.52,0.02 H -9.7 c -20.57,0.13 -40.95,1.09 -61.1,2.851 -2.06,0.179 -4.11,0.359 -6.16,0.559 -2.91,0.271 -5.81,0.57 -8.7,0.88 -1.57,0.16 -3.12,0.34 -4.68,0.51 -1.52,0.171 -3.04,0.35 -4.56,0.53 -1.01,0.12 -2.01,0.24 -3.01,0.37 -58.21,7.2 -114.36,21.08 -167.63,40.85 -2.57,0.94 -5.12,1.9 -7.67,2.89 -1.15,0.43 -2.29,0.871 -3.44,1.321"
             style="fill:none;stroke:#6b94f1;stroke-width:0.1;stroke-linecap:butt;stroke-linejoin:miter;stroke-miterlimit:10;stroke-dasharray:none;stroke-opacity:1"
             id="path422" /></g><g
           id="g424"
           transform="translate(1058.6396,625.4004)"><path
             d="M 0,0 C -0.83,-0.051 -1.649,-0.101 -2.479,-0.141 -2.88,-0.16 -3.29,-0.19 -3.689,-0.21 -7.33,-0.4 -10.979,-0.561 -14.64,-0.681 c -6.49,-0.219 -13.009,-0.33 -19.56,-0.33 -6.79,0 -13.55,0.12 -20.279,0.361 -4,0.129 -8,0.32 -11.98,0.54 -0.401,0.019 -0.801,0.04 -1.201,0.07 -0.25,0.01 -0.489,0.029 -0.739,0.04"
             style="fill:none;stroke:#6b94f1;stroke-width:0.1;stroke-linecap:butt;stroke-linejoin:miter;stroke-miterlimit:10;stroke-dasharray:none;stroke-opacity:1"
             id="path426" /></g><g
           id="g428"
           transform="translate(1063.6104,1772.96)"><path
             d="M 0,0 C 0.47,-0.03 0.939,-0.06 1.409,-0.09"
             style="fill:none;stroke:#6b94f1;stroke-width:0.1;stroke-linecap:butt;stroke-linejoin:miter;stroke-miterlimit:10;stroke-dasharray:none;stroke-opacity:1"
             id="path430" /></g><g
           id="g432"
           transform="translate(1042.1104,1774.0098)"><path
             d="M 0,0 C 7.109,-0.21 14.18,-0.56 21.22,-1.03"
             style="fill:none;stroke:#6b94f1;stroke-width:0.1;stroke-linecap:butt;stroke-linejoin:miter;stroke-miterlimit:10;stroke-dasharray:none;stroke-opacity:1"
             id="path434" /></g><g
           id="g436"
           transform="translate(983.8599,1772.8701)"><path
             d="m 0,0 c 0.81,0.06 1.61,0.11 2.42,0.16 0.59,0.04 1.19,0.08 1.78,0.12 6.52,0.4 13.08,0.7 19.66,0.89 5.55,0.16 11.13,0.24 16.72,0.24 5.74,0 11.45,-0.08 17.15,-0.26"
             style="fill:none;stroke:#6b94f1;stroke-width:0.1;stroke-linecap:butt;stroke-linejoin:miter;stroke-miterlimit:10;stroke-dasharray:none;stroke-opacity:1"
             id="path438" /></g><g
           id="g440"
           transform="translate(1007.48,1423.5898)"><path
             d="M 0,0 C 5.63,0.17 11.29,0.25 16.96,0.25 22.63,0.25 28.29,0.17 33.92,0"
             style="fill:none;stroke:#6b94f1;stroke-width:0.1;stroke-linecap:butt;stroke-linejoin:miter;stroke-miterlimit:10;stroke-dasharray:none;stroke-opacity:1"
             id="path442" /></g><g
           id="g444"
           transform="translate(1424.0801,1040.9102)"><path
             d="M 0,0 C 0.24,-5.62 0.36,-11.28 0.36,-16.96 0.36,-22.641 0.24,-28.3 0,-33.92"
             style="fill:none;stroke:#6b94f1;stroke-width:0.1;stroke-linecap:butt;stroke-linejoin:miter;stroke-miterlimit:10;stroke-dasharray:none;stroke-opacity:1"
             id="path446" /></g><g
           id="g448"
           transform="translate(1082.8203,1771.7202)"><path
             d="m 0,0 c 1.819,-0.15 3.63,-0.3 5.449,-0.45 1.53,-0.13 3.061,-0.26 4.591,-0.4"
             style="fill:none;stroke:#6b94f1;stroke-width:0.1;stroke-linecap:butt;stroke-linejoin:miter;stroke-miterlimit:10;stroke-dasharray:none;stroke-opacity:1"
             id="path450" /></g><g
           id="g452"
           transform="translate(1077.8896,1772.0801)"><path
             d="M 0,0 C 1.511,-0.11 3.021,-0.22 4.53,-0.33"
             style="fill:none;stroke:#6b94f1;stroke-width:0.1;stroke-linecap:butt;stroke-linejoin:miter;stroke-miterlimit:10;stroke-dasharray:none;stroke-opacity:1"
             id="path454" /></g><g
           id="g456"
           transform="translate(990.2402,625.4004)"><path
             d="m 0,0 c -101.22,5.93 -195.4,38.05 -275.87,89.689 -111.44,71.5 -196.58,180.42 -237.68,309.031 -17.66,55.239 -27.19,114.12 -27.19,175.219 0,113.721 33.02,219.73 89.99,308.971 0.01,0 0.01,0.009 0.01,0.009 95.23,149.161 257.41,251.451 444.18,264.54 0.06,0 0.12,0.011 0.18,0.011 13.43,0.719 26.96,1.08 40.58,1.08 13.619,0 27.15,-0.361 40.579,-1.08 0.061,0 0.12,-0.011 0.181,-0.011 3.75,-0.199 7.5,-0.429 11.24,-0.679"
             style="fill:none;stroke:#6b94f1;stroke-width:0.1;stroke-linecap:butt;stroke-linejoin:miter;stroke-miterlimit:10;stroke-dasharray:none;stroke-opacity:1"
             id="path458" /></g><g
           id="g460"
           transform="translate(1044.5098,1423.4902)"><path
             d="M 0,0 C -1.04,0.04 -2.069,0.07 -3.109,0.1"
             style="fill:none;stroke:#6b94f1;stroke-width:0.1;stroke-linecap:butt;stroke-linejoin:miter;stroke-miterlimit:10;stroke-dasharray:none;stroke-opacity:1"
             id="path462" /></g><g
           id="g464"
           transform="translate(1543.5703,482.6504)"><path
             d="m 0,0 c -133.66,-128.221 -314.73,-207.42 -514.28,-208.681 3.429,0.031 6.849,0.09 10.259,0.17 0.701,0.021 1.391,0.04 2.081,0.071 7.089,0.2 14.15,0.54 21.179,1.009 187.601,12.351 350.631,114.701 446.301,264.271 57.149,89.33 90.27,195.5 90.27,309.399 0,61.101 -9.531,119.981 -27.19,175.231 -41.171,128.81 -126.52,237.87 -238.221,309.36 -81.25,52.02 -176.429,84.149 -278.71,89.54 -3.479,0.19 -6.969,0.339 -10.46,0.46"
             style="fill:none;stroke:#6b94f1;stroke-width:0.1;stroke-linecap:butt;stroke-linejoin:miter;stroke-miterlimit:10;stroke-dasharray:none;stroke-opacity:1"
             id="path466" /></g><g
           id="g468"
           transform="translate(1723.5898,1295.9199)"><path
             d="m 0,0 c 32.84,-84.32 50.851,-176.04 50.851,-271.97 0,-200.92 -79.011,-383.4 -207.661,-518.04 -7.45,-7.8 -15.07,-15.44 -22.85,-22.92"
             style="fill:none;stroke:#6b94f1;stroke-width:0.1;stroke-linecap:butt;stroke-linejoin:miter;stroke-miterlimit:10;stroke-dasharray:none;stroke-opacity:1"
             id="path470" /></g><g
           id="g472"
           transform="translate(1721.9404,1300.1299)"><path
             d="M 0,0 C 0.52,-1.29 1.029,-2.59 1.52,-3.88"
             style="fill:none;stroke:#6b94f1;stroke-width:0.1;stroke-linecap:butt;stroke-linejoin:miter;stroke-miterlimit:10;stroke-dasharray:none;stroke-opacity:1"
             id="path474" /></g><g
           id="g476"
           transform="translate(1672.3096,1402)"><path
             d="m 0,0 c 0.87,-1.48 1.74,-2.97 2.591,-4.46 0.92,-1.58 1.819,-3.17 2.71,-4.76 11.33,-19.99 21.75,-40.55 31.229,-61.62 0.891,-1.99 1.771,-3.98 2.651,-5.97"
             style="fill:none;stroke:#6b94f1;stroke-width:0.1;stroke-linecap:butt;stroke-linejoin:miter;stroke-miterlimit:10;stroke-dasharray:none;stroke-opacity:1"
             id="path478" /></g><g
           id="g480"
           transform="translate(1664.29,1415.3999)"><path
             d="M 0,0 C 0.76,-1.23 1.51,-2.46 2.25,-3.69"
             style="fill:none;stroke:#6b94f1;stroke-width:0.1;stroke-linecap:butt;stroke-linejoin:miter;stroke-miterlimit:10;stroke-dasharray:none;stroke-opacity:1"
             id="path482" /></g><g
           id="g484"
           transform="translate(1637.9102,1455.5)"><path
             d="M 0,0 C 0.85,-1.19 1.68,-2.39 2.51,-3.59"
             style="fill:none;stroke:#6b94f1;stroke-width:0.1;stroke-linecap:butt;stroke-linejoin:miter;stroke-miterlimit:10;stroke-dasharray:none;stroke-opacity:1"
             id="path486" /></g><g
           id="g488"
           transform="translate(1581.8301,1525.7402)"><path
             d="m 0,0 c 10.74,-11.9 21.09,-24.15 31.03,-36.73 3.21,-4.04 6.36,-8.11 9.47,-12.22 0.9,-1.17 1.79,-2.34 2.66,-3.52 0.89,-1.17 1.76,-2.35 2.63,-3.53"
             style="fill:none;stroke:#6b94f1;stroke-width:0.1;stroke-linecap:butt;stroke-linejoin:miter;stroke-miterlimit:10;stroke-dasharray:none;stroke-opacity:1"
             id="path490" /></g><g
           id="g492"
           transform="translate(1518.3799,1588.3198)"><path
             d="M 0,0 C 2.67,-2.32 5.32,-4.67 7.95,-7.05 27.12,-24.32 45.39,-42.56 62.68,-61.71"
             style="fill:none;stroke:#6b94f1;stroke-width:0.1;stroke-linecap:butt;stroke-linejoin:miter;stroke-miterlimit:10;stroke-dasharray:none;stroke-opacity:1"
             id="path494" /></g><g
           id="g496"
           transform="translate(1338.2803,1705.3301)"><path
             d="M 0,0 C 3.83,-1.77 7.649,-3.57 11.45,-5.4 64.609,-31.04 114.29,-62.75 159.58,-99.66"
             style="fill:none;stroke:#6b94f1;stroke-width:0.1;stroke-linecap:butt;stroke-linejoin:miter;stroke-miterlimit:10;stroke-dasharray:none;stroke-opacity:1"
             id="path498" /></g><g
           id="g500"
           transform="translate(1314.5596,1715.77)"><path
             d="M 0,0 C 1.36,-0.57 2.721,-1.14 4.07,-1.72"
             style="fill:none;stroke:#6b94f1;stroke-width:0.1;stroke-linecap:butt;stroke-linejoin:miter;stroke-miterlimit:10;stroke-dasharray:none;stroke-opacity:1"
             id="path502" /></g><g
           id="g504"
           transform="translate(1301.6504,1721.04)"><path
             d="M 0,0 C 2.27,-0.89 4.529,-1.81 6.779,-2.73"
             style="fill:none;stroke:#6b94f1;stroke-width:0.1;stroke-linecap:butt;stroke-linejoin:miter;stroke-miterlimit:10;stroke-dasharray:none;stroke-opacity:1"
             id="path506" /></g><g
           id="g508"
           transform="translate(1116.4297,1768.3501)"><path
             d="m 0,0 c 0.931,-0.11 1.851,-0.22 2.78,-0.34 63.56,-8 124.64,-23.97 182.21,-46.88"
             style="fill:none;stroke:#6b94f1;stroke-width:0.1;stroke-linecap:butt;stroke-linejoin:miter;stroke-miterlimit:10;stroke-dasharray:none;stroke-opacity:1"
             id="path510" /></g><g
           id="g512"
           transform="translate(1110.2002,1769.0898)"><path
             d="M 0,0 C 0.5,-0.05 1,-0.11 1.5,-0.17 2.25,-0.26 3,-0.34 3.75,-0.44"
             style="fill:none;stroke:#6b94f1;stroke-width:0.1;stroke-linecap:butt;stroke-linejoin:miter;stroke-miterlimit:10;stroke-dasharray:none;stroke-opacity:1"
             id="path514" /></g><g
           id="g516"
           transform="translate(634.2598,935.4404)"><path
             d="M 0,0 C -0.39,1.72 -0.77,3.439 -1.13,5.159 -6.48,30.43 -9.45,56.56 -9.79,83.34 c -0.02,1.72 -0.03,3.439 -0.03,5.17 v 0.05 c 0,1.71 0.01,3.41 0.03,5.109 v 0.011 c 1.28,101.06 40.04,193.09 103.03,262.82 8.97,9.95 18.44,19.439 28.37,28.419 67.09,60.841 154.91,99.201 251.61,103.23 5.62,0.241 11.28,0.361 16.96,0.361 5.68,0 11.341,-0.12 16.961,-0.361 8.46,-0.349 16.859,-0.969 25.179,-1.839 0.12,-0.01 0.23,-0.03 0.34,-0.03 1.32,-0.151 2.64,-0.29 3.96,-0.45 1.39,-0.161 2.78,-0.33 4.16,-0.5 1.45,-0.181 2.89,-0.371 4.33,-0.58 1.38,-0.181 2.76,-0.371 4.13,-0.59 1.401,-0.201 2.8,-0.41 4.2,-0.64 0.04,0 0.081,0 0.121,-0.01 0.04,-0.01 0.08,-0.02 0.12,-0.031 1,-0.16 1.989,-0.319 2.979,-0.479"
             style="fill:none;stroke:#6b94f1;stroke-width:0.1;stroke-linecap:butt;stroke-linejoin:miter;stroke-miterlimit:10;stroke-dasharray:none;stroke-opacity:1"
             id="path518" /></g><g
           id="g520"
           transform="translate(635.5698,929.8301)"><path
             d="M 0,0 C -0.42,1.76 -0.84,3.52 -1.24,5.29"
             style="fill:none;stroke:#6b94f1;stroke-width:0.1;stroke-linecap:butt;stroke-linejoin:miter;stroke-miterlimit:10;stroke-dasharray:none;stroke-opacity:1"
             id="path522" /></g><g
           id="g524"
           transform="translate(643.0898,902.8896)"><path
             d="M 0,0 C -0.93,2.91 -1.82,5.841 -2.67,8.78"
             style="fill:none;stroke:#6b94f1;stroke-width:0.1;stroke-linecap:butt;stroke-linejoin:miter;stroke-miterlimit:10;stroke-dasharray:none;stroke-opacity:1"
             id="path526" /></g><g
           id="g528"
           transform="translate(647.4902,889.8096)"><path
             d="M 0,0 C -0.76,2.131 -1.5,4.261 -2.22,6.4"
             style="fill:none;stroke:#6b94f1;stroke-width:0.1;stroke-linecap:butt;stroke-linejoin:miter;stroke-miterlimit:10;stroke-dasharray:none;stroke-opacity:1"
             id="path530" /></g><g
           id="g532"
           transform="translate(656.6001,866.5596)"><path
             d="M 0,0 C -0.86,2 -1.7,4 -2.52,6.021"
             style="fill:none;stroke:#6b94f1;stroke-width:0.1;stroke-linecap:butt;stroke-linejoin:miter;stroke-miterlimit:10;stroke-dasharray:none;stroke-opacity:1"
             id="path534" /></g><g
           id="g536"
           transform="translate(665.5098,847.2197)"><path
             d="M 0,0 C -1.38,2.78 -2.72,5.57 -4.02,8.38"
             style="fill:none;stroke:#6b94f1;stroke-width:0.1;stroke-linecap:butt;stroke-linejoin:miter;stroke-miterlimit:10;stroke-dasharray:none;stroke-opacity:1"
             id="path538" /></g><g
           id="g540"
           transform="translate(719.9199,764.5898)"><path
             d="m 0,0 c -14,16.42 -26.7,33.99 -37.91,52.54 -0.91,1.49 -1.8,2.99 -2.68,4.49"
             style="fill:none;stroke:#6b94f1;stroke-width:0.1;stroke-linecap:butt;stroke-linejoin:miter;stroke-miterlimit:10;stroke-dasharray:none;stroke-opacity:1"
             id="path542" /></g><g
           id="g544"
           transform="translate(864.29,657.2998)"><path
             d="M 0,0 C -1.13,0.49 -2.26,0.99 -3.38,1.5 -4.5,2 -5.62,2.51 -6.74,3.021 -40.28,18.45 -71.32,38.37 -99.09,62.03 c -16.24,13.83 -31.36,28.94 -45.2,45.17"
             style="fill:none;stroke:#6b94f1;stroke-width:0.1;stroke-linecap:butt;stroke-linejoin:miter;stroke-miterlimit:10;stroke-dasharray:none;stroke-opacity:1"
             id="path546" /></g><g
           id="g548"
           transform="translate(872.0801,654)"><path
             d="M 0,0 C -1.2,0.49 -2.39,0.99 -3.58,1.49"
             style="fill:none;stroke:#6b94f1;stroke-width:0.1;stroke-linecap:butt;stroke-linejoin:miter;stroke-miterlimit:10;stroke-dasharray:none;stroke-opacity:1"
             id="path550" /></g><g
           id="g552"
           transform="translate(1283.8096,719.4404)"><path
             d="m 0,0 c -61.71,-52.62 -139.6,-86.801 -225.17,-94.04 -11.269,-0.96 -22.68,-1.45 -34.2,-1.45 -11.52,0 -22.93,0.49 -34.199,1.45 -0.211,0.019 -0.41,0.04 -0.62,0.06 -0.451,0.03 -0.9,0.07 -1.351,0.12 -0.02,-0.01 -0.04,0 -0.06,0 -1.299,0.11 -2.6,0.24 -3.9,0.37 -1.189,0.109 -2.379,0.24 -3.56,0.37 -1.24,0.13 -2.48,0.269 -3.71,0.42 -0.339,0.04 -0.68,0.08 -1.01,0.12 -1.55,0.18 -3.079,0.38 -4.619,0.58 -0.051,0.01 -0.091,0.01 -0.141,0.02 -1.549,0.209 -3.089,0.419 -4.64,0.639 -1.139,0.17 -2.279,0.341 -3.42,0.511 -2.75,0.42 -5.489,0.87 -8.219,1.35 -24.52,4.299 -48.27,10.83 -71.031,19.379 -0.969,0.351 -1.94,0.72 -2.9,1.09 -1.359,0.521 -2.72,1.051 -4.08,1.59"
             style="fill:none;stroke:#6b94f1;stroke-width:0.1;stroke-linecap:butt;stroke-linejoin:miter;stroke-miterlimit:10;stroke-dasharray:none;stroke-opacity:1"
             id="path554" /></g><g
           id="g556"
           transform="translate(1424.3301,1023.9502)"><path
             d="M 0,0 C 0,-5.67 -0.08,-11.33 -0.25,-16.96 -0.55,-24.11 -1.03,-31.22 -1.71,-38.271 -11.79,-144.58 -63.49,-238.76 -140.34,-304.36"
             style="fill:none;stroke:#6b94f1;stroke-width:0.1;stroke-linecap:butt;stroke-linejoin:miter;stroke-miterlimit:10;stroke-dasharray:none;stroke-opacity:1"
             id="path558" /></g><g
           id="g560"
           transform="translate(1397.6904,1168.0298)"><path
             d="m 0,0 c 0.54,-1.4 1.069,-2.8 1.59,-4.2 14.399,-38.51 23.01,-79.84 24.8,-122.92 0.12,-3.97 0.2,-7.96 0.219,-11.96"
             style="fill:none;stroke:#6b94f1;stroke-width:0.1;stroke-linecap:butt;stroke-linejoin:miter;stroke-miterlimit:10;stroke-dasharray:none;stroke-opacity:1"
             id="path562" /></g><g
           id="g564"
           transform="translate(1394.5703,1175.8701)"><path
             d="M 0,0 C 0.47,-1.12 0.92,-2.25 1.37,-3.38"
             style="fill:none;stroke:#6b94f1;stroke-width:0.1;stroke-linecap:butt;stroke-linejoin:miter;stroke-miterlimit:10;stroke-dasharray:none;stroke-opacity:1"
             id="path566" /></g><g
           id="g568"
           transform="translate(1272.6504,1337.6299)"><path
             d="m 0,0 c 17.47,-13.83 33.75,-29.1 48.67,-45.62 29.019,-32.11 52.899,-68.96 70.35,-109.24"
             style="fill:none;stroke:#6b94f1;stroke-width:0.1;stroke-linecap:butt;stroke-linejoin:miter;stroke-miterlimit:10;stroke-dasharray:none;stroke-opacity:1"
             id="path570" /></g><g
           id="g572"
           transform="translate(1239.9404,1360.9902)"><path
             d="m 0,0 c 1.29,-0.83 2.56,-1.65 3.84,-2.49 1.269,-0.84 2.54,-1.68 3.8,-2.53 1.259,-0.85 2.519,-1.71 3.769,-2.57 1.151,-0.79 2.29,-1.59 3.431,-2.4"
             style="fill:none;stroke:#6b94f1;stroke-width:0.1;stroke-linecap:butt;stroke-linejoin:miter;stroke-miterlimit:10;stroke-dasharray:none;stroke-opacity:1"
             id="path574" /></g><g
           id="g576"
           transform="translate(1231.9404,1365.9902)"><path
             d="M 0,0 C 1.779,-1.09 3.55,-2.19 5.319,-3.29"
             style="fill:none;stroke:#6b94f1;stroke-width:0.1;stroke-linecap:butt;stroke-linejoin:miter;stroke-miterlimit:10;stroke-dasharray:none;stroke-opacity:1"
             id="path578" /></g><g
           id="g580"
           transform="translate(1223.8096,1370.7998)"><path
             d="M 0,0 C 2.71,-1.56 5.391,-3.15 8.051,-4.76"
             style="fill:none;stroke:#6b94f1;stroke-width:0.1;stroke-linecap:butt;stroke-linejoin:miter;stroke-miterlimit:10;stroke-dasharray:none;stroke-opacity:1"
             id="path582" /></g><g
           id="g584"
           transform="translate(1212.79,1376.9199)"><path
             d="M 0,0 C 1.86,-0.99 3.7,-2 5.54,-3.02"
             style="fill:none;stroke:#6b94f1;stroke-width:0.1;stroke-linecap:butt;stroke-linejoin:miter;stroke-miterlimit:10;stroke-dasharray:none;stroke-opacity:1"
             id="path586" /></g><g
           id="g588"
           transform="translate(1204.54,1381.21)"><path
             d="M 0,0 C 1.79,-0.91 3.57,-1.83 5.35,-2.75"
             style="fill:none;stroke:#6b94f1;stroke-width:0.1;stroke-linecap:butt;stroke-linejoin:miter;stroke-miterlimit:10;stroke-dasharray:none;stroke-opacity:1"
             id="path590" /></g><g
           id="g592"
           transform="translate(1189.5898,1388.3701)"><path
             d="M 0,0 C 2.101,-0.95 4.19,-1.93 6.271,-2.91"
             style="fill:none;stroke:#6b94f1;stroke-width:0.1;stroke-linecap:butt;stroke-linejoin:miter;stroke-miterlimit:10;stroke-dasharray:none;stroke-opacity:1"
             id="path594" /></g><g
           id="g596"
           transform="translate(1174.7305,1394.75)"><path
             d="m 0,0 c 1.43,-0.58 2.859,-1.17 4.279,-1.77 1.42,-0.59 2.84,-1.2 4.25,-1.81 2.12,-0.91 4.221,-1.85 6.321,-2.79"
             style="fill:none;stroke:#6b94f1;stroke-width:0.1;stroke-linecap:butt;stroke-linejoin:miter;stroke-miterlimit:10;stroke-dasharray:none;stroke-opacity:1"
             id="path598" /></g><g
           id="g600"
           transform="translate(1144.7402,1405.5298)"><path
             d="M 0,0 C 0.92,-0.28 1.84,-0.58 2.75,-0.88"
             style="fill:none;stroke:#6b94f1;stroke-width:0.1;stroke-linecap:butt;stroke-linejoin:miter;stroke-miterlimit:10;stroke-dasharray:none;stroke-opacity:1"
             id="path602" /></g><g
           id="g604"
           transform="translate(1133.29,1408.9502)"><path
             d="M 0,0 C 1.2,-0.34 2.4,-0.68 3.59,-1.04 5.01,-1.44 6.42,-1.86 7.83,-2.3"
             style="fill:none;stroke:#6b94f1;stroke-width:0.1;stroke-linecap:butt;stroke-linejoin:miter;stroke-miterlimit:10;stroke-dasharray:none;stroke-opacity:1"
             id="path606" /></g><g
           id="g608"
           transform="translate(1119.1797,1412.6499)"><path
             d="m 0,0 c 1.49,-0.36 2.971,-0.72 4.44,-1.11 1.48,-0.37 2.96,-0.75 4.43,-1.16 1.33,-0.34 2.651,-0.7 3.97,-1.08"
             style="fill:none;stroke:#6b94f1;stroke-width:0.1;stroke-linecap:butt;stroke-linejoin:miter;stroke-miterlimit:10;stroke-dasharray:none;stroke-opacity:1"
             id="path610" /></g><g
           id="g612"
           transform="translate(1108.6504,1415.0498)"><path
             d="M 0,0 C 0.869,-0.17 1.739,-0.36 2.6,-0.56"
             style="fill:none;stroke:#6b94f1;stroke-width:0.1;stroke-linecap:butt;stroke-linejoin:miter;stroke-miterlimit:10;stroke-dasharray:none;stroke-opacity:1"
             id="path614" /></g><g
           id="g616"
           transform="translate(474.3101,1533.8799)"><path
             d="m 0,0 c 5.31,5.73 10.74,11.4 16.27,17 l 0.24,0.23 c 1.05,1.09 2.11,2.15 3.18,3.21 1.07,1.07 2.13,2.13 3.21,3.19 l 0.23,0.23 c 91.73,90.57 200.99,152.69 316.78,186.35 1.46,0.43 2.92,0.85 4.38,1.26 1.02,0.3 2.05,0.59 3.07,0.87 1.88,0.53 3.77,1.05 5.65,1.56 4.31,1.18 8.63,2.31 12.96,3.39 3.01,0.76 6.03,1.5 9.06,2.23 1.33,0.32 2.66,0.63 3.99,0.94 0.89,0.21 1.78,0.41 2.68,0.62 1.41,0.33 2.83,0.65 4.25,0.96 0.96,0.21 1.93,0.43 2.9,0.64 1.09,0.24 2.18,0.48 3.27,0.71 0.94,0.2 1.89,0.4 2.84,0.6 1.21,0.26 2.42,0.51 3.63,0.75 0.88,0.19 1.77,0.37 2.66,0.55 1.37,0.28 2.75,0.55 4.13,0.82 1.47,0.29 2.95,0.57 4.43,0.85 1.32,0.25 2.64,0.5 3.96,0.74 1.01,0.18 2.02,0.37 3.03,0.55 1.17,0.21 2.34,0.42 3.52,0.62 2.6,0.46 5.21,0.9 7.82,1.33 1.31,0.21 2.63,0.43 3.94,0.63 1.25,0.2 2.49,0.39 3.73,0.58 0.5,0.08 1.01,0.16 1.51,0.23 4.24,0.65 8.48,1.25 12.73,1.81 1.5,0.21 3,0.4 4.51,0.59 2.26,0.29 4.52,0.57 6.79,0.83 16.83,2 33.71,3.42 50.62,4.28 7.28,0.37 14.56,0.63 21.84,0.79 2.42,0.05 4.85,0.09 7.28,0.12 1.36,0.01 2.72,0.03 4.08,0.04 h 0.39 c 2.13,0.01 4.26,0.01 6.39,0.01 0.88,-0.01 1.759,-0.01 2.64,-0.01 2.68,-0.02 5.36,-0.05 8.03,-0.1 3.11,-0.05 6.22,-0.12 9.33,-0.21 0.98,-0.03 1.96,-0.06 2.94,-0.09 1.08,-0.04 2.16,-0.08 3.24,-0.11 1.43,-0.06 2.86,-0.11 4.29,-0.18 2.2,-0.09 4.4,-0.2 6.6,-0.31 0.09,-0.01 0.189,-0.01 0.28,-0.02 4.28,-0.22 8.55,-0.48 12.83,-0.78 0.48,-0.03 0.96,-0.06 1.45,-0.1 1.51,-0.1 3.02,-0.21 4.53,-0.33 0.13,-0.01 0.26,-0.02 0.4,-0.03 1.49,-0.12 2.98,-0.24 4.47,-0.36 0.45,-0.04 0.89,-0.08 1.33,-0.11 1.149,-0.1 2.3,-0.21 3.44,-0.3 0.27,-0.03 0.53,-0.05 0.8,-0.08 0.94,-0.08 1.87,-0.17 2.81,-0.26 0.3,-0.03 0.61,-0.06 0.91,-0.09 0.29,-0.02 0.57,-0.05 0.86,-0.08 0.21,-0.02 0.42,-0.04 0.62,-0.06 0.53,-0.05 1.06,-0.11 1.59,-0.16 0.18,-0.02 0.36,-0.04 0.53,-0.05 0.82,-0.08 1.63,-0.17 2.44,-0.25 0.47,-0.05 0.95,-0.1 1.42,-0.15 0.55,-0.06 1.1,-0.12 1.66,-0.18 1.09,-0.12 2.18,-0.24 3.27,-0.36 0.41,-0.05 0.82,-0.09 1.23,-0.14 1.25,-0.14 2.5,-0.29 3.75,-0.44 0.83,-0.1 1.65,-0.2 2.48,-0.3 0.93,-0.12 1.85,-0.23 2.78,-0.34 1.51,-0.2 3.03,-0.4 4.54,-0.6 1.47,-0.19 2.93,-0.39 4.4,-0.6 1.73,-0.24 3.46,-0.48 5.19,-0.73 0.9,-0.14 1.81,-0.27 2.71,-0.41 1.85,-0.28 3.7,-0.56 5.54,-0.85 4.16,-0.66 8.31,-1.34 12.47,-2.07 4.14,-0.73 8.29,-1.49 12.43,-2.28 1.38,-0.27 2.76,-0.53 4.14,-0.81 2.7,-0.53 5.4,-1.08 8.09,-1.64 3.21,-0.68 6.41,-1.37 9.6,-2.08 2.65,-0.59 5.29,-1.19 7.93,-1.82 2.21,-0.52 4.41,-1.04 6.61,-1.59 1.83,-0.44 3.659,-0.89 5.48,-1.36 1.58,-0.39 3.16,-0.79 4.73,-1.21 29.9,-7.72 59.41,-17.34 88.35,-28.83 0.08,-0.03 0.15,-0.06 0.23,-0.09 2.26,-0.9 4.52,-1.81 6.78,-2.73 0.9,-0.37 1.8,-0.74 2.7,-1.11 1.15,-0.47 2.29,-0.95 3.43,-1.43 1.36,-0.56 2.709,-1.14 4.07,-1.72 1.45,-0.61 2.889,-1.24 4.34,-1.86 1.25,-0.54 2.51,-1.09 3.76,-1.65 3.86,-1.7 7.71,-3.43 11.55,-5.21 3.83,-1.76 7.65,-3.55 11.45,-5.4 52.06,-25.04 101.83,-56.46 148.13,-94.26 3.37,-2.74 6.72,-5.52 10.05,-8.34 0.62,-0.52 1.23,-1.04 1.85,-1.57 1.759,-1.49 3.509,-2.99 5.25,-4.5 1.12,-0.98 2.25,-1.96 3.37,-2.94 2.24,-1.96 4.47,-3.94 6.69,-5.94"
             style="fill:none;stroke:#6b94f1;stroke-width:0.1;stroke-linecap:butt;stroke-linejoin:miter;stroke-miterlimit:10;stroke-dasharray:none;stroke-opacity:1"
             id="path618" /></g><g
           id="g620"
           transform="translate(274.79,1050.5)"><path
             d="M 0,0 C 6.12,174.08 72.53,346.43 199.23,483.07"
             style="fill:none;stroke:#6b94f1;stroke-width:0.1;stroke-linecap:butt;stroke-linejoin:miter;stroke-miterlimit:10;stroke-dasharray:none;stroke-opacity:1"
             id="path622" /></g><g
           id="g624"
           transform="translate(274.6499,1046)"><path
             d="M 0,0 C 0.04,1.38 0.08,2.76 0.13,4.15"
             style="fill:none;stroke:#6b94f1;stroke-width:0.1;stroke-linecap:butt;stroke-linejoin:miter;stroke-miterlimit:10;stroke-dasharray:none;stroke-opacity:1"
             id="path626" /></g><g
           id="g628"
           transform="translate(274.8101,997.2402)"><path
             d="M 0,0 C -0.11,2.97 -0.2,5.939 -0.27,8.91"
             style="fill:none;stroke:#6b94f1;stroke-width:0.1;stroke-linecap:butt;stroke-linejoin:miter;stroke-miterlimit:10;stroke-dasharray:none;stroke-opacity:1"
             id="path630" /></g><g
           id="g632"
           transform="translate(497.4399,490.25)"><path
             d="m 0,0 -0.23,0.23 c -1.08,1.06 -2.14,2.12 -3.21,3.18 -1.07,1.07 -2.13,2.13 -3.18,3.21 l -0.24,0.24 c -133.81,135.52 -205.52,309.32 -215.13,485.88 -0.26,4.74 -0.48,9.49 -0.64,14.23"
             style="fill:none;stroke:#6b94f1;stroke-width:0.1;stroke-linecap:butt;stroke-linejoin:miter;stroke-miterlimit:10;stroke-dasharray:none;stroke-opacity:1"
             id="path634" /></g><g
           id="g636"
           transform="translate(760.3701,723.6904)"><path
             d="m 0,0 c -6.29,5.76 -12.49,11.689 -18.57,17.77 -6.57,6.57 -12.94,13.25 -19.12,20.059 -0.9,0.99 -1.8,1.981 -2.68,2.981 -0.04,0.03 -0.06,0.059 -0.08,0.089 -0.54,0.59 -1.06,1.18 -1.59,1.771"
             style="fill:none;stroke:#6b94f1;stroke-width:0.1;stroke-linecap:butt;stroke-linejoin:miter;stroke-miterlimit:10;stroke-dasharray:none;stroke-opacity:1"
             id="path638" /></g><g
           id="g640"
           transform="translate(766.6899,717.9902)"><path
             d="M 0,0 C -0.5,0.439 -0.99,0.89 -1.49,1.34 -2.91,2.6 -4.33,3.88 -5.74,5.18"
             style="fill:none;stroke:#6b94f1;stroke-width:0.1;stroke-linecap:butt;stroke-linejoin:miter;stroke-miterlimit:10;stroke-dasharray:none;stroke-opacity:1"
             id="path642" /></g><g
           id="g644"
           transform="translate(1575.9004,1532.4302)"><path
             d="M 0,0 C 1.739,-1.93 3.46,-3.87 5.159,-5.82 5.42,-6.11 5.68,-6.4 5.93,-6.69 6.18,-6.98 6.439,-7.27 6.689,-7.56"
             style="fill:none;stroke:#6b94f1;stroke-width:0.1;stroke-linecap:butt;stroke-linejoin:miter;stroke-miterlimit:10;stroke-dasharray:none;stroke-opacity:1"
             id="path646" /></g><g
           id="g648"
           transform="translate(1534.3203,1574.1499)"><path
             d="M 0,0 C 6.979,-6.33 13.84,-12.86 20.569,-19.59 27.779,-26.8 34.76,-34.16 41.5,-41.64"
             style="fill:none;stroke:#6b94f1;stroke-width:0.1;stroke-linecap:butt;stroke-linejoin:miter;stroke-miterlimit:10;stroke-dasharray:none;stroke-opacity:1"
             id="path650" /></g><g
           id="g652"
           transform="translate(1525.2002,1582.2598)"><path
             d="M 0,0 C 0.38,-0.33 0.75,-0.66 1.13,-0.99 3.67,-3.21 6.189,-5.45 8.7,-7.72"
             style="fill:none;stroke:#6b94f1;stroke-width:0.1;stroke-linecap:butt;stroke-linejoin:miter;stroke-miterlimit:10;stroke-dasharray:none;stroke-opacity:1"
             id="path654" /></g><g
           id="g656"
           transform="translate(1294.9199,1318.5801)"><path
             d="m 0,0 c 4.1,-3.87 8.16,-7.81 12.17,-11.82 4.01,-4.01 7.96,-8.07 11.82,-12.17"
             style="fill:none;stroke:#6b94f1;stroke-width:0.1;stroke-linecap:butt;stroke-linejoin:miter;stroke-miterlimit:10;stroke-dasharray:none;stroke-opacity:1"
             id="path658" /></g><g
           id="g660"
           transform="translate(1318.9102,753.4004)"><path
             d="m 0,0 c -3.811,-4.141 -7.72,-8.23 -11.74,-12.25 -3.98,-3.971 -8.02,-7.851 -12.13,-11.631"
             style="fill:none;stroke:#6b94f1;stroke-width:0.1;stroke-linecap:butt;stroke-linejoin:miter;stroke-miterlimit:10;stroke-dasharray:none;stroke-opacity:1"
             id="path662" /></g><g
           id="g664"
           transform="translate(1771.7002,1086.9502)"><path
             d="M 0,0 C 0.21,-2.5 0.399,-5 0.59,-7.51 0.689,-8.97 0.8,-10.44 0.899,-11.9"
             style="fill:none;stroke:#6b94f1;stroke-width:0.1;stroke-linecap:butt;stroke-linejoin:miter;stroke-miterlimit:10;stroke-dasharray:none;stroke-opacity:1"
             id="path666" /></g><g
           id="g668"
           transform="translate(1770.8398,1096.46)"><path
             d="M 0,0 C 0.13,-1.36 0.26,-2.73 0.391,-4.09"
             style="fill:none;stroke:#6b94f1;stroke-width:0.1;stroke-linecap:butt;stroke-linejoin:miter;stroke-miterlimit:10;stroke-dasharray:none;stroke-opacity:1"
             id="path670" /></g><g
           id="g672"
           transform="translate(1770.2197,1102.6899)"><path
             d="M 0,0 C 0.15,-1.44 0.29,-2.88 0.44,-4.31"
             style="fill:none;stroke:#6b94f1;stroke-width:0.1;stroke-linecap:butt;stroke-linejoin:miter;stroke-miterlimit:10;stroke-dasharray:none;stroke-opacity:1"
             id="path674" /></g><g
           id="g676"
           transform="translate(718.3301,766.3604)"><path
             d="m 0,0 c -1.8,2.02 -3.58,4.06 -5.35,6.1 -64.36,74.44 -106.46,161.469 -126.3,252.39 -28.24,129.36 -11.43,266.58 50.45,386.58 26.57,51.55 61.47,99.92 104.67,143.13 80.42,80.41 178.72,132.02 282.11,154.84 h 0.01 c 168.96,37.28 351.5,-2.36 491.639,-118.94 3.191,-2.65 6.361,-5.35 9.511,-8.08 0.04,-0.05 0.09,-0.081 0.13,-0.121 10.01,-8.989 19.83,-18.299 29.46,-27.94 9.63,-9.629 18.94,-19.449 27.93,-29.449 0.04,-0.051 0.08,-0.1 0.12,-0.14 10.48,-11.661 20.53,-23.58 30.15,-35.721 3.199,-4.049 6.36,-8.119 9.47,-12.219 0.89,-1.17 1.78,-2.35 2.66,-3.52 0.88,-1.17 1.76,-2.35 2.63,-3.53 1.03,-1.39 2.05,-2.78 3.06,-4.171 0.72,-0.98 1.42,-1.949 2.129,-2.929 0.861,-1.18 1.71,-2.37 2.561,-3.56 0.85,-1.19 1.7,-2.39 2.54,-3.58 0.84,-1.19 1.68,-2.39 2.51,-3.59 0.83,-1.18 1.65,-2.361 2.47,-3.55 0.02,-0.041 0.05,-0.09 0.09,-0.13 0.8,-1.17 1.6,-2.35 2.4,-3.53 4.92,-7.25 9.7,-14.56 14.34,-21.93 0.76,-1.221 1.52,-2.44 2.28,-3.66 0.769,-1.24 1.54,-2.47 2.29,-3.71 0.76,-1.23 1.5,-2.46 2.25,-3.69 1.95,-3.23 3.87,-6.46 5.769,-9.71 0.871,-1.491 1.731,-2.971 2.591,-4.46 0.909,-1.58 1.81,-3.17 2.71,-4.761 51.13,-90.449 81.99,-189.27 92.58,-289.809"
             style="fill:none;stroke:#6b94f1;stroke-width:0.1;stroke-linecap:butt;stroke-linejoin:miter;stroke-miterlimit:10;stroke-dasharray:none;stroke-opacity:1"
             id="path678" /></g><g
           id="g680"
           transform="translate(516.0801,472.7002)"><path
             d="m 0,0 c 142.06,-127.96 332.54,-172.63 508.4,-133.98 103.57,22.75 202.07,74.4 282.61,154.94 43.2,43.21 78.1,91.58 104.679,143.14 61.971,120.19 78.731,257.66 50.301,387.19 -20.98,95.63 -66.58,186.92 -136.82,263.77 -1.3,1.42 -2.61,2.84 -3.93,4.25 -0.68,0.74 -1.37,1.48 -2.07,2.21"
             style="fill:none;stroke:#6b94f1;stroke-width:0.1;stroke-linecap:butt;stroke-linejoin:miter;stroke-miterlimit:10;stroke-dasharray:none;stroke-opacity:1"
             id="path682" /></g><g
           id="g684"
           transform="translate(1574.4902,514.25)"><path
             d="m 0,0 c -6.45,-6.96 -13.061,-13.82 -19.83,-20.59 -6.46,-6.46 -13.01,-12.78 -19.65,-18.95 -98.43,-91.64 -215.5,-151.9 -338.451,-180.76 -4.319,-1.03 -8.649,-2 -12.989,-2.94 -1.471,-0.33 -2.94,-0.64 -4.41,-0.94 -1.47,-0.32 -2.95,-0.62 -4.42,-0.92 -1.48,-0.31 -2.96,-0.6 -4.44,-0.89 -1.48,-0.3 -2.96,-0.58 -4.44,-0.86 -1.44,-0.28 -2.891,-0.56 -4.33,-0.82 -0.09,-0.02 -0.19,-0.04 -0.28,-0.05 -1.43,-0.27 -2.87,-0.53 -4.3,-0.78 -4.601,-0.83 -9.21,-1.61 -13.82,-2.34 -2.87,-0.46 -5.73,-0.9 -8.611,-1.32 -1.479,-0.23 -2.96,-0.44 -4.449,-0.65 -0.04,0 -0.09,-0.01 -0.141,-0.02 -1.479,-0.21 -2.96,-0.41 -4.439,-0.61 -1.51,-0.21 -3.021,-0.41 -4.53,-0.6 -3.031,-0.4 -6.06,-0.77 -9.09,-1.12 -4.561,-0.54 -9.12,-1.03 -13.691,-1.47 -2.439,-0.24 -4.879,-0.47 -7.319,-0.68 -4.58,-0.41 -9.17,-0.78 -13.761,-1.09 -12.5,-0.89 -25.019,-1.45 -37.549,-1.71 -3.6,-0.07 -7.201,-0.12 -10.8,-0.13 -0.25,0 -0.5,-0.01 -0.75,0 -4.55,-0.03 -9.1,-0.01 -13.66,0.05 -1.6,0.02 -3.21,0.04 -4.81,0.08 -1.21,0.02 -2.43,0.05 -3.65,0.08 -1.29,0.03 -2.58,0.06 -3.87,0.1 -1.87,0.06 -3.75,0.12 -5.62,0.19 -1.07,0.04 -2.14,0.08 -3.21,0.12 -77.9,3.23 -155.4,18.52 -229.43,45.89 -2.56,0.95 -5.12,1.91 -7.67,2.89 -1.15,0.44 -2.3,0.88 -3.44,1.32 -1.41,0.55 -2.81,1.1 -4.21,1.65 -1.41,0.56 -2.81,1.12 -4.21,1.68 -4.63,1.86 -9.24,3.76 -13.83,5.73 -2.64,1.12 -5.28,2.26 -7.91,3.42 -81.52,35.8 -157.97,86.81 -225.04,153.04 2.57,-2.53 5.15,-5.02 7.76,-7.49 0.05,-0.05 0.1,-0.1 0.16,-0.15 3.4,-3.22 6.83,-6.39 10.28,-9.51"
             style="fill:none;stroke:#6b94f1;stroke-width:0.1;stroke-linecap:butt;stroke-linejoin:miter;stroke-miterlimit:10;stroke-dasharray:none;stroke-opacity:1"
             id="path686" /></g><g
           id="g688"
           transform="translate(1774.2998,1018.1602)"><path
             d="M 0,0 C -1.39,-181 -67.91,-361.58 -199.53,-503.61"
             style="fill:none;stroke:#6b94f1;stroke-width:0.1;stroke-linecap:butt;stroke-linejoin:miter;stroke-miterlimit:10;stroke-dasharray:none;stroke-opacity:1"
             id="path690" /></g><g
           id="g692"
           transform="translate(1774.3096,1028.6899)"><path
             d="M 0,0 C 0.011,-1.56 0.021,-3.11 0.021,-4.67 V -4.7 C 0.021,-6.02 0.011,-7.34 0,-8.66 V -9.8 c 0,-0.2 0,-0.4 -0.01,-0.6"
             style="fill:none;stroke:#6b94f1;stroke-width:0.1;stroke-linecap:butt;stroke-linejoin:miter;stroke-miterlimit:10;stroke-dasharray:none;stroke-opacity:1"
             id="path694" /></g><g
           id="g696"
           transform="translate(1773.1797,1065.5801)"><path
             d="M 0,0 C 0.07,-1.27 0.141,-2.53 0.2,-3.79"
             style="fill:none;stroke:#6b94f1;stroke-width:0.1;stroke-linecap:butt;stroke-linejoin:miter;stroke-miterlimit:10;stroke-dasharray:none;stroke-opacity:1"
             id="path698" /></g><g
           id="g700"
           transform="translate(1772.7197,1073.2998)"><path
             d="M 0,0 C 0.15,-2.44 0.3,-4.88 0.44,-7.31"
             style="fill:none;stroke:#6b94f1;stroke-width:0.1;stroke-linecap:butt;stroke-linejoin:miter;stroke-miterlimit:10;stroke-dasharray:none;stroke-opacity:1"
             id="path702" /></g><g
           id="g704"
           transform="translate(625.2798,1051.6299)"><path
             d="m 0,0 c 0.09,1.34 0.19,2.68 0.29,4.01 0.11,1.34 0.22,2.68 0.34,4.02 7.26,81.56 39.47,161.32 96.65,226.9 4.9,5.64 10,11.18 15.29,16.6 1.2,1.23 2.41,2.45 3.64,3.68 1.22,1.22 2.44,2.43 3.67,3.63 5.21,5.08 10.52,9.98 15.93,14.71 73.89,64.72 165.91,97.64 258.26,98.79 h 0.26 c 1.46,0.01 2.92,0.02 4.39,0.03 2.27,0 4.55,-0.02 6.83,-0.06 1.09,-0.01 2.18,-0.03 3.27,-0.06 0.07,-0.01 0.14,-0.01 0.21,-0.01 1.61,-0.03 3.21,-0.08 4.81,-0.15 1.65,-0.06 3.3,-0.13 4.951,-0.21 0.149,0 0.29,-0.01 0.439,-0.02 0.101,0 0.19,-0.01 0.29,-0.01 3.04,-0.16 6.08,-0.35 9.12,-0.58 1.64,-0.11 3.28,-0.24 4.91,-0.39 1.63,-0.13 3.25,-0.28 4.88,-0.45 8.06,-0.79 16.1,-1.82 24.111,-3.11 1.029,-0.16 2.069,-0.33 3.099,-0.51 0.99,-0.16 1.99,-0.33 2.981,-0.51 1.279,-0.22 2.549,-0.45 3.83,-0.69 0.869,-0.16 1.729,-0.32 2.599,-0.49 0.52,-0.1 1.04,-0.2 1.56,-0.3 0.94,-0.18 1.88,-0.37 2.82,-0.57 0.81,-0.16 1.63,-0.33 2.441,-0.51 0.5,-0.1 1,-0.21 1.5,-0.32 0.869,-0.18 1.729,-0.37 2.599,-0.56 0.84,-0.18 1.67,-0.37 2.51,-0.56 0.62,-0.14 1.25,-0.29 1.87,-0.43 1.191,-0.28 2.37,-0.56 3.55,-0.85 1.48,-0.36 2.96,-0.73 4.44,-1.11 1.48,-0.37 2.96,-0.76 4.43,-1.16 1.33,-0.35 2.65,-0.71 3.97,-1.08 0.421,-0.12 0.841,-0.24 1.27,-0.35 1.2,-0.34 2.401,-0.69 3.59,-1.04 1.42,-0.41 2.83,-0.83 4.24,-1.26 1.21,-0.37 2.41,-0.74 3.62,-1.12 0.92,-0.29 1.831,-0.58 2.75,-0.88 1.26,-0.41 2.51,-0.82 3.77,-1.24 0.971,-0.32 1.94,-0.64 2.91,-0.98 0.2,-0.07 0.41,-0.14 0.62,-0.22 1.17,-0.39 2.34,-0.8 3.51,-1.22 1.33,-0.47 2.65,-0.95 3.97,-1.43 0.801,-0.29 1.6,-0.59 2.4,-0.9 0.76,-0.27 1.521,-0.56 2.28,-0.85 1.31,-0.5 2.621,-1.01 3.93,-1.53 1.29,-0.5 2.57,-1.01 3.851,-1.53 1.429,-0.57 2.859,-1.16 4.279,-1.77 1.42,-0.58 2.84,-1.19 4.25,-1.81 2.12,-0.91 4.221,-1.83 6.32,-2.79 0.01,0 0.01,-0.01 0.01,-0.01 2.101,-0.94 4.19,-1.92 6.271,-2.91 2.909,-1.38 5.799,-2.8 8.679,-4.25 1.79,-0.9 3.571,-1.82 5.35,-2.75 0.971,-0.5 1.94,-1.02 2.9,-1.54 1.861,-0.98 3.7,-1.99 5.54,-3.02 1.84,-1.01 3.66,-2.04 5.48,-3.1 2.7,-1.54 5.381,-3.13 8.051,-4.76 0.029,-0.01 0.059,-0.03 0.08,-0.05 1.779,-1.08 3.549,-2.18 5.319,-3.29 0.891,-0.57 1.79,-1.14 2.681,-1.71 1.29,-0.81 2.569,-1.64 3.839,-2.49 1.27,-0.83 2.541,-1.67 3.8,-2.53 1.26,-0.84 2.52,-1.69 3.77,-2.57 1.15,-0.78 2.29,-1.58 3.43,-2.4 0.451,-0.3 0.89,-0.62 1.34,-0.95 0.34,-0.23 0.67,-0.47 1.01,-0.72 0.3,-0.21 0.61,-0.43 0.91,-0.65 1,-0.71 1.99,-1.44 2.98,-2.17 0.171,-0.12 0.341,-0.24 0.5,-0.37 1.01,-0.74 2.02,-1.49 3.02,-2.25 1.54,-1.16 3.071,-2.33 4.6,-3.51 1.17,-0.91 2.341,-1.83 3.511,-2.75 7.589,-6.04 15.019,-12.38 22.269,-19.05 4.151,-3.81 8.231,-7.73 12.25,-11.74 4.021,-4.02 7.93,-8.11 11.74,-12.25 0.11,-0.12 0.23,-0.25 0.34,-0.37 71.14,-77.53 106.16,-176.32 105.05,-274.77"
             style="fill:none;stroke:#6b94f1;stroke-width:0.1;stroke-linecap:butt;stroke-linejoin:miter;stroke-miterlimit:10;stroke-dasharray:none;stroke-opacity:1"
             id="path706" /></g><g
           id="g708"
           transform="translate(624.77,1042.8999)"><path
             d="M 0,0 C 0.08,1.57 0.16,3.14 0.25,4.71"
             style="fill:none;stroke:#6b94f1;stroke-width:0.1;stroke-linecap:butt;stroke-linejoin:miter;stroke-miterlimit:10;stroke-dasharray:none;stroke-opacity:1"
             id="path710" /></g><g
           id="g712"
           transform="translate(624.4399,1033.4502)"><path
             d="M 0,0 C 0.04,1.57 0.09,3.14 0.14,4.72 0.17,5.48 0.2,6.24 0.23,7 0.26,7.81 0.3,8.63 0.33,9.44"
             style="fill:none;stroke:#6b94f1;stroke-width:0.1;stroke-linecap:butt;stroke-linejoin:miter;stroke-miterlimit:10;stroke-dasharray:none;stroke-opacity:1"
             id="path714" /></g><g
           id="g716"
           transform="translate(625.29,996.4697)"><path
             d="M 0,0 C -0.12,1.58 -0.22,3.17 -0.3,4.761 -0.4,6.36 -0.48,7.96 -0.55,9.561 -0.58,10.09 -0.6,10.61 -0.62,11.141 -0.67,12.13 -0.7,13.12 -0.73,14.11"
             style="fill:none;stroke:#6b94f1;stroke-width:0.1;stroke-linecap:butt;stroke-linejoin:miter;stroke-miterlimit:10;stroke-dasharray:none;stroke-opacity:1"
             id="path718" /></g><g
           id="g720"
           transform="translate(1287.3096,722.5898)"><path
             d="m 0,0 c -66.67,-58.3 -148.079,-90.74 -231.149,-97.33 -6.46,-0.51 -12.941,-0.87 -19.42,-1.06 -1.41,-0.049 -2.83,-0.08 -4.241,-0.11 -1.25,-0.03 -2.5,-0.05 -3.75,-0.06 -0.599,-0.01 -1.2,-0.01 -1.799,-0.01 -0.601,-0.01 -1.201,-0.02 -1.8,-0.01 -3.141,-0.02 -6.28,0.01 -9.421,0.08 -2.489,0.05 -4.98,0.13 -7.47,0.24 -5.369,0.2 -10.73,0.531 -16.079,0.96 -36.79,2.941 -73.241,10.96 -108.221,24.05 -0.969,0.36 -1.93,0.72 -2.9,1.09 -1.359,0.52 -2.72,1.051 -4.08,1.59 -1.64,0.65 -3.27,1.3 -4.899,1.98 -1.201,0.481 -2.391,0.981 -3.581,1.49 -1.41,0.59 -2.81,1.19 -4.21,1.81 -1.129,0.49 -2.26,0.99 -3.379,1.5 -1.121,0.49 -2.241,1 -3.361,1.52 -32.159,14.73 -62.76,33.95 -90.86,57.67 -8.64,7.29 -17.06,15.02 -25.199,23.161 -8.151,8.149 -15.87,16.559 -23.16,25.21 -55.281,65.509 -86.181,144.589 -92.681,225.269 -0.14,1.58 -0.25,3.16 -0.36,4.74"
             style="fill:none;stroke:#6b94f1;stroke-width:0.1;stroke-linecap:butt;stroke-linejoin:miter;stroke-miterlimit:10;stroke-dasharray:none;stroke-opacity:1"
             id="path722" /></g><g
           id="g724"
           transform="translate(1423.1904,993.9902)"><path
             d="m 0,0 c -0.07,-1.11 -0.16,-2.21 -0.261,-3.32 -7.109,-85.741 -41.79,-169.63 -104.019,-237.27 -3.861,-4.1 -7.811,-8.16 -11.821,-12.17 -3.969,-3.97 -7.99,-7.881 -12.049,-11.711 -0.04,-0.029 -0.08,-0.069 -0.121,-0.109 -2.439,-2.24 -4.9,-4.45 -7.379,-6.61"
             style="fill:none;stroke:#6b94f1;stroke-width:0.1;stroke-linecap:butt;stroke-linejoin:miter;stroke-miterlimit:10;stroke-dasharray:none;stroke-opacity:1"
             id="path726" /></g><g
           id="g728"
           transform="translate(543.25,1599.6699)"><path
             d="m 0,0 c 3.37,2.82 6.76,5.61 10.17,8.36 1.88,1.52 3.76,3.03 5.65,4.51 131.36,104.17 289.56,158 448.65,161.5 11.29,0.25 22.59,0.25 33.87,-0.02 0.18,0 0.35,-0.01 0.52,-0.01 177.04,-4.17 352.87,-70.66 491.79,-199.47 0.14,-0.13 0.28,-0.26 0.42,-0.39 5.69,-5.29 11.32,-10.68 16.89,-16.18 l 0.24,-0.23 c 1.08,-1.05 2.14,-2.11 3.21,-3.18 1.07,-1.07 2.13,-2.13 3.18,-3.21 l 0.23,-0.24 c 6.05,-6.12 11.96,-12.32 17.75,-18.6 0.03,-0.02 0.06,-0.05 0.08,-0.08 56.31,-61.02 100.63,-129.11 132.94,-201.27 0.9,-1.98 1.79,-3.98 2.65,-5.97 0.88,-2 1.74,-4 2.6,-6 1.17,-2.71 2.31,-5.42 3.43,-8.14 0.56,-1.34 1.1,-2.67 1.65,-4.01 0.37,-0.9 0.73,-1.8 1.09,-2.7 0.56,-1.4 1.12,-2.8 1.68,-4.21 0.51,-1.29 1.01,-2.59 1.52,-3.88 0.04,-0.11 0.08,-0.22 0.13,-0.33 24.19,-62.35 39.72,-127.28 46.6,-192.95 0.01,-0.09 0.02,-0.19 0.03,-0.28 0.15,-1.44 0.3,-2.88 0.44,-4.31 0.06,-0.64 0.13,-1.28 0.18,-1.92 0.14,-1.37 0.27,-2.73 0.39,-4.09 0.16,-1.81 0.32,-3.61 0.47,-5.42 0.22,-2.5 0.41,-5 0.59,-7.51 0.11,-1.46 0.22,-2.92 0.31,-4.39 0.05,-0.59 0.09,-1.17 0.12,-1.75 0.17,-2.44 0.31,-4.88 0.44,-7.31 0.02,-0.14 0.02,-0.28 0.02,-0.41 0.08,-1.27 0.15,-2.53 0.2,-3.79 0.07,-1.38 0.14,-2.76 0.2,-4.14 0.04,-0.73 0.07,-1.46 0.09,-2.18 0.06,-1.49 0.12,-2.98 0.17,-4.46 0.06,-1.49 0.11,-2.98 0.15,-4.47 0.04,-1.41 0.08,-2.82 0.11,-4.23 0.11,-4.14 0.17,-8.27 0.2,-12.41 0,-0.26 0,-0.52 0.01,-0.79 v -0.42 c 0.02,-2.89 0.02,-5.78 0,-8.66 0,-0.58 0,-1.16 -0.01,-1.74 v -0.13 c 0,-0.62 -0.02,-1.24 -0.03,-1.85 0.01,-0.16 0,-0.32 0,-0.48 0,-0.69 -0.01,-1.37 -0.03,-2.04 -2.42,-175.78 -66.27,-350.86 -191.53,-490.3"
             style="fill:none;stroke:#6b94f1;stroke-width:0.1;stroke-linecap:butt;stroke-linejoin:miter;stroke-miterlimit:10;stroke-dasharray:none;stroke-opacity:1"
             id="path730" /></g><g
           id="g732"
           transform="translate(718.3301,1281.8599)"><path
             d="m 0,0 c 1.4,1.57 2.8,3.14 4.23,4.7 1.63,1.8 3.27,3.6 4.94,5.38 4.66,5 9.42,9.94 14.3,14.82 4.63,4.63 9.32,9.17 14.07,13.6 1.73,1.63 3.47,3.23 5.22,4.82 1.86,1.7 3.72,3.38 5.6,5.05"
             style="fill:none;stroke:#6b94f1;stroke-width:0.1;stroke-linecap:butt;stroke-linejoin:miter;stroke-miterlimit:10;stroke-dasharray:none;stroke-opacity:1"
             id="path734" /></g><g
           id="g736"
           transform="translate(1582.5898,523.3604)"><path
             d="M 0,0 C -2.57,-2.96 -5.18,-5.9 -7.82,-8.811 -7.91,-8.91 -8,-9.011 -8.1,-9.11 c -2.53,-2.8 -5.1,-5.58 -7.71,-8.34 -3.89,-4.13 -7.85,-8.21 -11.89,-12.25 -3.61,-3.62 -7.27,-7.17 -10.96,-10.67 -0.12,-0.12 -0.239,-0.231 -0.36,-0.34 -2.83,-2.69 -5.68,-5.341 -8.56,-7.94 -3.24,-2.96 -6.52,-5.871 -9.81,-8.741"
             style="fill:none;stroke:#6b94f1;stroke-width:0.1;stroke-linecap:butt;stroke-linejoin:miter;stroke-miterlimit:10;stroke-dasharray:none;stroke-opacity:1"
             id="path738" /></g><g
           id="g740"
           transform="translate(1318.7998,753.5098)"><path
             d="m 0,0 c -2.229,-2.37 -4.49,-4.72 -6.78,-7.06 -1.63,-1.669 -3.28,-3.339 -4.93,-4.99 -2.519,-2.519 -5.06,-5.01 -7.609,-7.47 -1.511,-1.459 -3.031,-2.9 -4.561,-4.339"
             style="fill:none;stroke:#6b94f1;stroke-width:0.1;stroke-linecap:butt;stroke-linejoin:miter;stroke-miterlimit:10;stroke-dasharray:none;stroke-opacity:1"
             id="path742" /></g><g
           id="g744"
           transform="translate(753.73,729.6504)"><path
             d="m 0,0 c -4.14,3.8 -8.23,7.72 -12.24,11.739 -4.02,4.011 -7.94,8.101 -11.74,12.24"
             style="fill:none;stroke:#6b94f1;stroke-width:0.1;stroke-linecap:butt;stroke-linejoin:miter;stroke-miterlimit:10;stroke-dasharray:none;stroke-opacity:1"
             id="path746" /></g><g
           id="g748"
           transform="translate(766.6899,1330.23)"><path
             d="M 0,0 C 0.2,0.18 0.4,0.35 0.6,0.53 76.24,67.61 165.33,111.31 258.49,131.65 387.85,159.89 525.07,143.07 645.08,81.2 696.62,54.62 745,19.73 788.2,-23.48 c 80.41,-80.41 132.03,-178.72 154.841,-282.1 v -0.02 c 37.689,-170.75 -3.211,-355.36 -122.661,-496.07 -0.03,-0.03 -0.06,-0.07 -0.1,-0.11 -1.41,-1.66 -2.83,-3.31 -4.26,-4.96 -0.04,-0.04 -0.08,-0.09 -0.12,-0.13 -8.99,-10.01 -18.3,-19.83 -27.93,-29.46 -9.63,-9.63 -19.45,-18.95 -29.46,-27.93 -0.04,-0.05 -0.09,-0.08 -0.13,-0.12 -42.15,-37.87 -87.56,-70.12 -135.27,-96.74 -0.04,-0.03 -0.069,-0.05 -0.11,-0.06 -2.38,-1.34 -4.77,-2.66 -7.17,-3.96 -1.28,-0.71 -2.57,-1.4 -3.85,-2.09 -2.68,-1.45 -5.37,-2.87 -8.06,-4.26 -1.53,-0.8 -3.07,-1.59 -4.6,-2.38 -1.49,-0.76 -2.98,-1.52 -4.48,-2.27 -94.02,-47.34 -195.94,-73.63 -298.72,-78.87 -195.06,-9.97 -393.28,55.86 -546.73,197.48 -0.15,0.13 -0.3,0.26 -0.44,0.4 -7.32,6.76 -14.53,13.69 -21.64,20.8 -28,28 -53.31,57.65 -75.96,88.65 -0.84,1.15 -1.67,2.3 -2.5,3.45 -0.83,1.15 -1.66,2.31 -2.48,3.46 -0.83,1.16 -1.65,2.31 -2.46,3.47 -1.64,2.32 -3.26,4.65 -4.86,6.98 -4.26,6.2 -8.42,12.44 -12.46,18.73 -2.16,3.35 -4.28,6.71 -6.37,10.08 -1.18,1.88 -2.34,3.77 -3.49,5.66 -5.36,8.79 -10.52,17.68 -15.48,26.64 -5.12,9.21 -10.01,18.51 -14.69,27.89 -2.71,5.39 -5.33,10.81 -7.88,16.25 -0.65,1.36 -1.28,2.72 -1.91,4.09 -1.81,3.89 -3.57,7.79 -5.29,11.7 -0.6,1.35 -1.19,2.7 -1.78,4.05 -0.72,1.64 -1.42,3.28 -2.12,4.92 -1.71,4.02 -3.39,8.04 -5.02,12.08 -1.94,4.79 -3.83,9.6 -5.68,14.42 -15.99,41.92 -28.08,84.98 -36.29,128.63 -0.3,1.6 -0.59,3.2 -0.88,4.8 -0.27,1.48 -0.53,2.96 -0.79,4.45 -0.2,1.1 -0.39,2.2 -0.57,3.3 -0.18,1.07 -0.36,2.13 -0.54,3.2 -0.14,0.8 -0.27,1.59 -0.39,2.39 -0.25,1.53 -0.49,3.06 -0.73,4.59 -3.84,24.5 -6.45,49.15 -7.84,73.87 -0.01,0.06 -0.01,0.12 -0.01,0.19 -0.3,5.12 -0.53,10.25 -0.72,15.38 v 0.02 c -0.1,2.97 -0.19,5.94 -0.27,8.91 -0.07,3.02 -0.12,6.05 -0.16,9.08 -0.01,1.37 -0.03,2.74 -0.04,4.12 -0.04,7.5 0.02,15 0.2,22.5 0.03,1.38 0.07,2.77 0.11,4.15 0.04,1.38 0.08,2.77 0.13,4.15 0,0.11 0.01,0.23 0.01,0.35 6.32,181.53 78.21,361.22 215.68,500.49"
             style="fill:none;stroke:#6b94f1;stroke-width:0.1;stroke-linecap:butt;stroke-linejoin:miter;stroke-miterlimit:10;stroke-dasharray:none;stroke-opacity:1"
             id="path750" /></g><g
           id="g752"
           transform="translate(543.25,1599.6699)"><path
             d="m 0,0 c -15.7,-13.16 -30.98,-27.06 -45.81,-41.7 l -0.23,-0.23 c -1.08,-1.05 -2.14,-2.11 -3.21,-3.18 -1.07,-1.07 -2.13,-2.13 -3.18,-3.21 l -0.24,-0.24 c -0.04,-0.04 -0.08,-0.08 -0.11,-0.12 -5.53,-5.62 -10.92,-11.33 -16.16,-17.11 -0.1,-0.11 -0.19,-0.21 -0.29,-0.31 -1.88,-2.08 -3.75,-4.17 -5.6,-6.28 -0.07,-0.08 -0.15,-0.17 -0.22,-0.26 -124.25,-141.45 -167.3,-329.34 -129.15,-502.95 22.75,-103.58 74.41,-202.07 154.95,-282.61 43.2,-43.2 91.58,-78.1 143.13,-104.68 120.19,-61.97 257.66,-78.74 387.2,-50.3 93.86,20.59 183.53,64.89 259.48,132.951 0.06,0.04 0.12,0.099 0.18,0.149 1.11,1 2.21,2 3.32,3 0.08,0.07 0.15,0.141 0.23,0.21 2.47,2.26 4.94,4.54 7.38,6.85"
             style="fill:none;stroke:#6b94f1;stroke-width:0.1;stroke-linecap:butt;stroke-linejoin:miter;stroke-miterlimit:10;stroke-dasharray:none;stroke-opacity:1"
             id="path754" /></g><g
           id="g756"
           transform="translate(1318.7998,753.5098)"><path
             d="m 0,0 c -3.78,-4.1 -7.649,-8.149 -11.63,-12.12 -4.019,-4.02 -8.099,-7.94 -12.25,-11.739 -16.309,-15.011 -33.57,-28.411 -51.58,-40.201 -1.269,-0.85 -2.55,-1.68 -3.84,-2.49 -1.28,-0.83 -2.57,-1.65 -3.86,-2.44 -1.12,-0.71 -2.239,-1.4 -3.37,-2.09 -1.03,-0.63 -2.05,-1.25 -3.09,-1.85 -1.05,-0.639 -2.109,-1.259 -3.17,-1.88 -1.34,-0.79 -2.689,-1.57 -4.05,-2.35 h -0.01 c -1.08,-0.619 -2.17,-1.22 -3.25,-1.83 -0.65,-0.36 -1.299,-0.72 -1.94,-1.07 -0.87,-0.48 -1.74,-0.95 -2.609,-1.419 -53.141,-28.661 -111.391,-44.431 -170.151,-47.311 -13.269,-0.649 -26.57,-0.64 -39.84,0.03 -87.25,4.37 -173.35,37.18 -243.21,98.42 -0.19,0.17 -0.39,0.34 -0.58,0.521 -2.23,1.949 -4.44,3.939 -6.64,5.96 -4.1,3.859 -8.16,7.799 -12.17,11.809 -4.01,4.01 -7.95,8.071 -11.81,12.17 -2.4,2.61 -4.75,5.24 -7.07,7.89 -15.36,17.591 -28.91,36.211 -40.67,55.61 -0.9,1.49 -1.8,2.99 -2.68,4.49 -1.77,3 -3.49,6.02 -5.17,9.06 -1.51,2.73 -2.99,5.471 -4.43,8.23 -1.44,2.76 -2.85,5.531 -4.22,8.31 -1.37,2.78 -2.71,5.57 -4.02,8.38 -0.76,1.66 -1.52,3.31 -2.27,4.98 -0.89,1.98 -1.76,3.98 -2.62,5.98 -0.86,2 -1.7,4 -2.52,6.02 -0.58,1.42 -1.16,2.85 -1.72,4.281 -0.57,1.429 -1.12,2.87 -1.68,4.299 -0.54,1.44 -1.08,2.88 -1.62,4.321 -0.53,1.439 -1.05,2.889 -1.57,4.329 -0.75,2.131 -1.49,4.261 -2.22,6.4 -0.72,2.151 -1.42,4.3 -2.11,6.45 -0.02,0.08 -0.04,0.15 -0.07,0.23 -0.92,2.92 -1.82,5.85 -2.67,8.78 -0.43,1.47 -0.85,2.941 -1.27,4.41 -0.4,1.451 -0.8,2.91 -1.19,4.361 -0.83,3.119 -1.63,6.25 -2.39,9.389 -0.43,1.76 -0.84,3.531 -1.24,5.29 -0.03,0.111 -0.05,0.21 -0.07,0.321 -0.39,1.719 -0.77,3.439 -1.13,5.159 -3.6,16.86 -6.09,33.91 -7.48,51.03 -0.13,1.58 -0.25,3.16 -0.36,4.74 v 0.1 c -0.11,1.58 -0.21,3.17 -0.3,4.761 -0.1,1.599 -0.18,3.199 -0.25,4.8 -0.03,0.7 -0.06,1.399 -0.08,2.109 -0.04,0.81 -0.07,1.62 -0.1,2.44 -0.05,1.51 -0.09,3.031 -0.13,4.55 -0.06,2.941 -0.1,5.88 -0.1,8.82 v 0.28 c 0,3.07 0.04,6.15 0.11,9.22 0.03,1.57 0.08,3.15 0.14,4.72 0.03,0.99 0.06,1.97 0.11,2.96 0,0.1 0,0.19 0.01,0.29 0.02,0.49 0.04,0.98 0.07,1.47 v 0.01 c 0.07,1.57 0.15,3.14 0.25,4.71 0.08,1.34 0.16,2.68 0.26,4.02 0.09,1.33 0.18,2.67 0.29,4.01 0.1,1.34 0.22,2.68 0.34,4.02 7.03,79.62 37.83,157.53 92.42,222.2 7.29,8.65 15.01,17.06 23.16,25.21 8.14,8.15 16.56,15.87 25.2,23.16 3.2,2.7 6.43,5.34 9.69,7.92 0.67,0.54 1.35,1.07 2.02,1.59 1.18,0.92 2.36,1.84 3.55,2.74 0.11,0.09 0.22,0.17 0.33,0.24 79.92,60.91 177.52,87.67 272.98,80.3 90.23,-6.94 178.55,-44.39 248.23,-112.31 1.23,-1.21 2.46,-2.42 3.68,-3.64 1.22,-1.22 2.43,-2.45 3.63,-3.68 4.98,-5.11 9.8,-10.32 14.45,-15.63 28.14,-32.06 50.28,-67.54 66.42,-104.99 0.55,-1.25 1.09,-2.51 1.6,-3.77 0.08,-0.16 0.15,-0.32 0.211,-0.48 0.369,-0.88 0.739,-1.77 1.09,-2.65 0.469,-1.12 0.929,-2.25 1.37,-3.38 0.599,-1.48 1.179,-2.97 1.75,-4.46 0.54,-1.4 1.069,-2.8 1.589,-4.2 16.14,-43.44 24.48,-89.13 25.02,-134.88 0.021,-1.3 0.03,-2.61 0.021,-3.92 0.009,-0.36 0.009,-0.72 0.009,-1.08 0,-1.5 -0.009,-3 -0.03,-4.5 -0.02,-1.52 -0.04,-3.04 -0.08,-4.549 -0.14,-6 -0.41,-11.991 -0.819,-17.96 -0.061,-0.981 -0.141,-1.971 -0.21,-2.951 -0.071,-0.98 -0.151,-1.959 -0.241,-2.94 C 97.061,151.75 62.38,67.8 0.11,0.12 0.07,0.08 0.04,0.04 0,0 Z"
             style="fill:none;stroke:#6b94f1;stroke-width:0.1;stroke-linecap:butt;stroke-linejoin:miter;stroke-miterlimit:10;stroke-dasharray:none;stroke-opacity:1"
             id="path758" /></g></g></g></g></svg>
